<svg width="120" height="120" viewBox="0 0 120 120" fill="none" xmlns="http://www.w3.org/2000/svg">
<g clip-path="url(#clip0_1325_30744)">
<mask id="mask0_1325_30744" style="mask-type:luminance" maskUnits="userSpaceOnUse" x="0" y="0" width="120" height="120">
<path d="M120 0H0V120H120V0Z" fill="white"/>
</mask>
<g mask="url(#mask0_1325_30744)">
<path d="M98 111H14V84H98V111ZM98 56H14V83H98V56ZM108.07 32.48L27 10.54L18.64 41.44L99.72 63.3801L108.07 32.48Z" fill="#C2E2FF"/>
<path d="M29 74.4997C27.6739 74.4997 26.4021 73.9729 25.4645 73.0352C24.5268 72.0975 24 70.8258 24 69.4997C24 68.1736 24.5268 66.9018 25.4645 65.9642C26.4021 65.0265 27.6739 64.4997 29 64.4997C30.3261 64.4997 31.5979 65.0265 32.5355 65.9642C33.4732 66.9018 34 68.1736 34 69.4997C34 70.8258 33.4732 72.0975 32.5355 73.0352C31.5979 73.9729 30.3261 74.4997 29 74.4997ZM98 82.9997H14V83.9997H98V82.9997ZM108.69 32.1297L26.63 9.92969L18 41.7897L100.06 63.9997L108.69 32.1297ZM27.34 11.1297L107.46 32.8097L99.36 62.7497L19.24 41.0897L27.34 11.1297ZM36.08 31.9997L38.91 32.7597C40.5441 33.2059 42.0191 34.1042 43.1654 35.3514C44.3117 36.5985 45.0828 38.1438 45.39 39.8097V40.0797C47.3997 38.4979 48.8448 36.3092 49.51 33.8397C50.0035 32.0095 50.0564 30.0884 49.6644 28.2337C49.2723 26.3791 48.4465 24.6438 47.2545 23.1698C46.0626 21.6959 44.5384 20.5253 42.8068 19.7539C41.0752 18.9826 39.1855 18.6324 37.2926 18.7321C35.3996 18.8319 33.5572 19.3786 31.9162 20.3276C30.2753 21.2766 28.8825 22.6009 27.852 24.1919C26.8215 25.7829 26.1825 27.5954 25.9875 29.481C25.7925 31.3665 26.0469 33.2714 26.73 35.0397L26.9 34.8197C28.0078 33.5309 29.4579 32.582 31.0824 32.083C32.707 31.5839 34.4397 31.555 36.08 31.9997Z" fill="white"/>
<circle cx="37.5" cy="30.5" r="12.5" fill="#C2E2FF"/>
<path d="M34 97.5C34 94.7386 31.7614 92.5 29 92.5C26.2386 92.5 24 94.7386 24 97.5C24 100.261 26.2386 102.5 29 102.5C31.7614 102.5 34 100.261 34 97.5Z" fill="#116DFF"/>
<path d="M44 31C44 26.5818 40.866 23 37 23C33.134 23 30 26.5818 30 31C30 35.4176 33.134 39 37 39C40.866 39 44 35.4176 44 31Z" fill="white"/>
<path d="M46.4241 29.7974L47.6959 25.2623L43.1704 23.9933L40.8482 19.9044L36.7867 22.2031L32.2516 20.9314L30.9799 25.4665L26.9045 27.7406L29.1898 31.8502L27.9207 36.3757L32.4558 37.6474L34.7299 41.7228L38.8396 39.4375L43.365 40.7065L44.634 36.1811L48.7229 33.8589L46.4241 29.7974ZM36.0787 25.1723C37.0223 25.4369 37.5697 26.4108 37.3024 27.3641C37.1756 27.8161 36.8745 28.1992 36.4653 28.4292C36.056 28.6592 35.5722 28.7172 35.1202 28.5904C34.167 28.3231 33.6196 27.3491 33.8842 26.4055C34.1515 25.4523 35.1255 24.905 36.0787 25.1723ZM39.5448 36.478C38.6012 36.2134 38.0566 35.2298 38.3212 34.2862C38.4479 33.8342 38.749 33.4511 39.1583 33.2211C39.5675 32.9911 40.0513 32.9331 40.5033 33.0599C41.4469 33.3245 42.0039 34.3012 41.7393 35.2448C41.6119 35.6993 41.309 36.0846 40.8975 36.3159C40.486 36.5472 39.9994 36.6055 39.5448 36.478ZM33.0663 34.6925L32.027 32.8432L42.5434 26.9331L43.5826 28.7824L33.0663 34.6925Z" fill="#28BF9A"/>
<path d="M50.8584 36.5937L64.2898 40.5429L64.5719 39.5836L51.1405 35.6343L50.8584 36.5937Z" fill="#192C55"/>
<path d="M52.2688 31.7967L71.4566 37.4385L71.7387 36.4792L52.5509 30.8374L52.2688 31.7967Z" fill="#192C55"/>
</g>
<path d="M52.197 95.034H38.197V94.034H52.197V95.034ZM66.197 99.034H38.197V100.034H66.197V99.034ZM52.197 66.034H38.197V67.034H52.197V66.034ZM66.197 71.034H38.197V72.034H66.197V71.034Z" fill="#192C55"/>
<path d="M94.0235 62.4294C96.7649 54.9904 92.9568 46.7375 85.5177 43.9961V43.9961C78.0786 41.2547 69.8256 45.0631 67.0844 52.5023V52.5023C64.3433 59.9414 68.1517 68.1941 75.5907 70.9352V70.9352C83.0296 73.6763 91.2822 69.8682 94.0235 62.4294V62.4294Z" fill="#116DFF"/>
<path d="M88.3765 59.1785L88.4042 59.0765L88.3024 59.0481L81.1725 57.064L83.1339 49.9946L83.1625 49.8915L83.0593 49.8635L82.2059 49.6318L82.1038 49.604L82.0756 49.706L80.1142 56.7752L73.1061 54.828L73.003 54.7993L72.975 54.9026L72.7432 55.7559L72.7155 55.858L72.8174 55.8863L79.8168 57.8328L77.8554 64.9022L77.827 65.0044L77.9292 65.0331L78.7907 65.2744L78.8933 65.3032L78.9219 65.2004L80.8832 58.1311L88.0137 60.1065L88.1167 60.135L88.1448 60.0319L88.3765 59.1785Z" fill="white" stroke="white" stroke-width="0.21273"/>
<path fill-rule="evenodd" clip-rule="evenodd" d="M107.4 48.8435L107.558 49.8311L99.8276 51.0666L99.6702 50.0789L107.4 48.8435ZM107.73 35.023L108.28 35.8596L96.4949 43.614L95.9459 42.7784L107.73 35.023ZM93.8809 32.5188L94.7201 33.0642L91.4338 38.1224L90.5946 37.578L93.8809 32.5188Z" fill="#192C55"/>
</g>
<defs>
<clipPath id="clip0_1325_30744">
<rect width="120" height="120" fill="white"/>
</clipPath>
</defs>
</svg>
