<svg xmlns="http://www.w3.org/2000/svg" width="120" height="120" viewBox="0 0 120 120">
    <g fill="none" fill-rule="evenodd">
        <polygon points="0 120 120 120 120 0 0 0" />
        <polygon fill="#28BF9A" points="43.495 94.79 80.765 72.701 51.313 23.007 14.043 45.096" />
        <path fill="#192C55"
            d="M58.1593,48.9106 L58.6693,49.7706 L33.8223,64.4966 L33.3123,63.6366 L58.1593,48.9106 Z M55.3429,44.4189 L55.8529,45.2789 L31.0059,60.0049 L30.4959,59.1449 L55.3429,44.4189 Z M52.5821,39.7602 L53.0921,40.6202 L28.2451,55.3462 L27.7351,54.4862 L52.5821,39.7602 Z M34.6649,44.0835 L35.1739,44.9445 L25.4839,50.6875 L24.9739,49.8275 L34.6649,44.0835 Z" />
        <polygon fill="#116DFF"
            points="76.505 94.79 39.235 72.701 68.687 23.007 92.976 37.403 94.376 37.64 93.826 37.906 105.957 45.096" />
        <polygon fill="#FFF" points="81.489 90.602 37.489 90.602 38.511 32 82.511 32" />
        <path fill="#C2E2FF"
            d="M60,57.9998 C72.1757143,57.9998 82.4792634,66.277822 85.5009805,77.6060692 L85.599,77.9848 L95.292,81.2178 C100.672,83.0128 104.236,88.0718 104.136,93.7728 C104.010814,100.973443 98.1539676,106.830318 90.9902749,106.996188 L90.678,106.9998 L28.679,106.9998 C21.374,106.9998 15.555,101.0778 15.682,93.7728 C15.7801481,88.1773741 19.3847298,83.2003905 24.6643755,81.3208636 L24.965,81.2178 L34.365,78.1178 C37.21,66.5278 47.641,57.9998 60,57.9998 Z M56.0599,40.97 L63.5999,50.4 L64.1889,50.142 L64.2499,49.66 L67.8699,45.55 L75.6499,54 L44.6099,54 L56.0599,40.97 Z M63.4069,38 C64.5109,38 65.3909,38.896 65.3719,40 C65.3537636,41.0538182 64.521964,41.9181157 63.4861895,41.9945109 L63.3369,42 C62.2329,42 61.3529,41.104 61.3719,40 C61.3909,38.896 62.3019,38 63.4069,38 Z" />
        <path fill="#192C55"
            d="M59.666,75.991 L60.666,76.009 L60.509,85 L69.5,85 L69.5,86 L60.491,86 L60.334,95.009 L59.334,94.991 L59.491,86 L50.5,86 L50.5,85 L59.509,85 L59.666,75.991 Z M64.2501,49.6599 L66.3501,52.3999 L65.5601,53.0099 L63.6001,50.3999 L64.2501,49.6599 Z M96.4998,37.0401 C98.0598,37.8801 98.6398,39.8301 97.7998,41.3901 L93.0898,50.1201 C92.6698,50.8901 91.8798,51.3301 91.0598,51.3301 C90.6898,51.3301 90.3098,51.2401 89.9698,51.0601 C88.8498,50.4501 88.4298,49.0501 89.0298,47.9301 L91.8198,42.7701 L92.6998,43.2501 L89.9098,48.4101 C89.5698,49.0401 89.8098,49.8401 90.4398,50.1801 C90.7498,50.3401 91.0998,50.3801 91.4298,50.2801 C91.7698,50.1801 92.0398,49.9601 92.2098,49.6501 L96.9198,40.9101 C97.4998,39.8401 97.0998,38.5001 96.0298,37.9201 C95.3198,37.5401 94.4998,37.5801 93.8598,37.9601 L92.9098,37.4001 C93.2398,37.1201 93.6298,36.9201 94.0598,36.7901 C94.8798,36.5401 95.7498,36.6301 96.4998,37.0401 Z" />
    </g>
</svg>