<svg width="60" height="60" viewBox="0 0 60 60" fill="none" xmlns="http://www.w3.org/2000/svg">
<g clip-path="url(#clip0_339_37114)">
<mask id="mask0_339_37114" style="mask-type:luminance" maskUnits="userSpaceOnUse" x="6" y="6" width="48" height="48">
<path d="M54 6H6V54H54V6Z" fill="white"/>
</mask>
<g mask="url(#mask0_339_37114)">
<mask id="mask1_339_37114" style="mask-type:luminance" maskUnits="userSpaceOnUse" x="8" y="7" width="43" height="45">
<path fill-rule="evenodd" clip-rule="evenodd" d="M31.7531 8.4299C26.3494 9.22772 20.6152 12.0922 15.8536 16.8538C12.9959 19.7115 10.8214 22.9208 9.36695 26.1933L8.45312 25.7872C9.95869 22.3997 12.2042 19.089 15.1465 16.1467C20.0448 11.2484 25.9706 8.27281 31.607 7.44062C37.2433 6.60845 42.6258 7.91893 46.3536 11.6467C50.0814 15.3745 51.3918 20.757 50.5597 26.3933C49.7275 32.0297 46.7519 37.9555 41.8536 42.8538C37.1729 47.5345 31.5552 50.4576 26.149 51.4348C20.7443 52.4117 15.5173 51.4463 11.6827 48.2966L12.3174 47.5239C15.8728 50.4442 20.7808 51.3889 25.9711 50.4507C31.1598 49.5129 36.5971 46.696 41.1465 42.1467C45.9081 37.385 48.7726 31.6508 49.5704 26.2472C50.3682 20.8436 49.0987 15.806 45.6465 12.3538C42.1943 8.90159 37.1567 7.63207 31.7531 8.4299Z" fill="url(#paint0_radial_339_37114)"/>
</mask>
<g mask="url(#mask1_339_37114)">
<g filter="url(#filter0_f_339_37114)">
<path d="M23.5 67C32.0604 67 39 60.0604 39 51.5C39 42.9396 32.0604 36 23.5 36C14.9396 36 8 42.9396 8 51.5C8 60.0604 14.9396 67 23.5 67Z" fill="#0021FF"/>
</g>
<g filter="url(#filter1_f_339_37114)">
<path d="M42 48.5C50.2843 48.5 57 41.7843 57 33.5C57 25.2157 50.2843 18.5 42 18.5C33.7157 18.5 27 25.2157 27 33.5C27 41.7843 33.7157 48.5 42 48.5Z" fill="#116DFF"/>
</g>
<g filter="url(#filter2_f_339_37114)">
<path d="M44 25.5C51.732 25.5 58 19.232 58 11.5C58 3.76801 51.732 -2.5 44 -2.5C36.268 -2.5 30 3.76801 30 11.5C30 19.232 36.268 25.5 44 25.5Z" fill="#5FF2AE"/>
</g>
</g>
<path d="M12.66 10.34C12.29 9.97 12.06 9.51 11.98 9H11.02C10.94 9.51 10.7 9.97 10.34 10.34C9.98 10.71 9.51 10.94 9 11.02V11.98C9.51 12.06 9.97 12.3 10.34 12.66C10.71 13.02 10.94 13.49 11.02 14H11.98C12.06 13.49 12.3 13.03 12.66 12.66C13.02 12.29 13.49 12.06 14 11.98V11.02C13.49 10.94 13.03 10.7 12.66 10.34Z" fill="#C2E2FF"/>
<path d="M29.5 42C36.4036 42 42 36.4036 42 29.5C42 22.5964 36.4036 17 29.5 17C22.5964 17 17 22.5964 17 29.5C17 36.4036 22.5964 42 29.5 42Z" fill="#C2E2FF"/>
<path d="M49.0298 45.97C48.4898 45.43 48.1398 44.75 48.0298 44H46.9798C46.8598 44.75 46.5198 45.44 45.9798 45.97C45.4398 46.5 44.7598 46.86 44.0098 46.97V48.02C44.7598 48.14 45.4498 48.48 45.9798 49.02C46.5098 49.56 46.8698 50.24 46.9798 50.99H48.0298C48.1498 50.24 48.4998 49.55 49.0298 49.02C49.5598 48.49 50.2498 48.13 50.9998 48.02V46.97C50.2498 46.85 49.5598 46.51 49.0298 45.97Z" fill="#C2E2FF"/>
<path opacity="0.3" d="M29.5 42C36.4036 42 42 36.4036 42 29.5C42 22.5964 36.4036 17 29.5 17C22.5964 17 17 22.5964 17 29.5C17 36.4036 22.5964 42 29.5 42Z" fill="#C2E2FF"/>
<path d="M26.6798 31.32C24.9598 29.6 23.8398 27.41 23.4698 25H22.5398C22.1598 27.41 21.0498 29.6 19.3298 31.32C17.6098 33.04 15.4198 34.16 13.0098 34.53V35.46C15.4198 35.84 17.6098 36.95 19.3298 38.67C21.0498 40.39 22.1698 42.58 22.5398 44.99H23.4698C23.8498 42.58 24.9598 40.39 26.6798 38.67C28.3998 36.95 30.5898 35.83 32.9998 35.46V34.53C30.5898 34.15 28.3998 33.04 26.6798 31.32Z" fill="#116DFF"/>
<path d="M40 20C39.18 19.18 38.65 18.14 38.47 17H37.53C37.35 18.14 36.82 19.18 36 20C35.18 20.82 34.14 21.35 33 21.53V22.47C34.14 22.65 35.18 23.18 36 24C36.82 24.82 37.35 25.86 37.53 27H38.47C38.65 25.86 39.18 24.82 40 24C40.82 23.18 41.86 22.65 43 22.47V21.53C41.86 21.35 40.82 20.82 40 20Z" fill="#116DFF"/>
<path d="M13 50C14.1046 50 15 49.1046 15 48C15 46.8954 14.1046 46 13 46C11.8954 46 11 46.8954 11 48C11 49.1046 11.8954 50 13 50Z" fill="#116DFF"/>
</g>
</g>
<defs>
<filter id="filter0_f_339_37114" x="6" y="34" width="35" height="35" filterUnits="userSpaceOnUse" color-interpolation-filters="sRGB">
<feFlood flood-opacity="0" result="BackgroundImageFix"/>
<feBlend mode="normal" in="SourceGraphic" in2="BackgroundImageFix" result="shape"/>
<feGaussianBlur stdDeviation="1" result="effect1_foregroundBlur_339_37114"/>
</filter>
<filter id="filter1_f_339_37114" x="15" y="6.5" width="54" height="54" filterUnits="userSpaceOnUse" color-interpolation-filters="sRGB">
<feFlood flood-opacity="0" result="BackgroundImageFix"/>
<feBlend mode="normal" in="SourceGraphic" in2="BackgroundImageFix" result="shape"/>
<feGaussianBlur stdDeviation="6" result="effect1_foregroundBlur_339_37114"/>
</filter>
<filter id="filter2_f_339_37114" x="17" y="-15.5" width="54" height="54" filterUnits="userSpaceOnUse" color-interpolation-filters="sRGB">
<feFlood flood-opacity="0" result="BackgroundImageFix"/>
<feBlend mode="normal" in="SourceGraphic" in2="BackgroundImageFix" result="shape"/>
<feGaussianBlur stdDeviation="6.5" result="effect1_foregroundBlur_339_37114"/>
</filter>
<radialGradient id="paint0_radial_339_37114" cx="0" cy="0" r="1" gradientUnits="userSpaceOnUse" gradientTransform="translate(29.63 29.5003) scale(21.17 21.17)">
<stop offset="0.106628" stop-color="#6F56F9"/>
<stop offset="0.359375" stop-color="#116DFF"/>
<stop offset="0.536458" stop-color="white" stop-opacity="0"/>
<stop offset="0.776042" stop-color="#19D1DF"/>
</radialGradient>
<clipPath id="clip0_339_37114">
<rect width="48" height="48" fill="white" transform="translate(6 6)"/>
</clipPath>
</defs>
</svg>
