<svg width="120" height="120" viewBox="0 0 120 120" fill="none" xmlns="http://www.w3.org/2000/svg">
<path d="M86.0481 8.821L49.1561 22.191C47.1887 22.9039 45.5851 24.3691 44.6981 26.2644C43.811 28.1596 43.7132 30.3296 44.4261 32.297L44.6441 32.899C45.357 34.8664 46.8222 36.47 48.7175 37.357C50.6127 38.2441 52.7827 38.3419 54.7501 37.629L91.6421 24.259C93.6095 23.5461 95.2131 22.0809 96.1001 20.1856C96.9871 18.2904 97.085 16.1204 96.3721 14.153L96.1541 13.551C95.4412 11.5836 93.9759 9.98003 92.0807 9.09298C90.1855 8.20593 88.0155 8.1081 86.0481 8.821Z" fill="#C2E2FF"/>
<path d="M95.4151 46.93L63.6291 40.912L57.6121 72.698L89.3971 78.715L95.4151 46.93Z" fill="#116DFF"/>
<path d="M85.34 60.98L77.03 59.4L78.59 51.16L77.61 50.98L76.05 59.22L67.88 57.67L67.7 58.65L75.86 60.2L74.3 68.44L75.29 68.63L76.85 60.39L85.16 61.96L85.34 60.98Z" fill="white"/>
<path d="M83.3 112.89C73.47 112.89 64.46 105.47 62.2 94.79L73.94 92.3C75.14 97.97 80.0398 101.75 84.8798 100.72C87.1098 100.25 89.03 98.8 90.29 96.65C91.66 94.3 92.08 91.44 91.47 88.59L103.21 86.1C104.43 91.87 103.53 97.77 100.66 102.69C97.68 107.81 92.96 111.28 87.37 112.46C86.01 112.75 84.6498 112.89 83.3098 112.89H83.3Z" fill="#FFB6AC"/>
<path d="M40 102C40 96.477 35.523 92 30 92C24.477 92 20 96.477 20 102C20 107.523 24.477 112 30 112C35.523 112 40 107.523 40 102Z" fill="#28BF9A"/>
<path d="M42.9701 48.98C47.6301 59.3 43.0301 71.44 32.7101 76.1C22.3901 80.76 10.2501 76.16 5.59009 65.84" fill="#FFD527"/>
<path d="M29.5899 23.83L22.4099 32.35L11.4499 30.39L7.65991 19.92L14.8399 11.4L25.7999 13.36L29.5899 23.83ZM111 31.5C111 28.46 108.54 26 105.5 26C102.46 26 99.9999 28.46 99.9999 31.5C99.9999 34.54 102.46 37 105.5 37C108.54 37 111 34.54 111 31.5ZM115 59H99.9999V60H115V59ZM105 65H97.9999V66H105V65Z" fill="#192C55"/>
</svg>
