<svg xmlns="http://www.w3.org/2000/svg" xmlns:xlink="http://www.w3.org/1999/xlink" width="120px"
    height="120px" viewBox="0 0 120 120" version="1.1">
    <script xmlns="" />
    <title>Promotional_Promote_Marketing Home_Email Marketing</title>
    <g id="Page-1" stroke="none" stroke-width="1" fill="none" fill-rule="evenodd">
        <g id="Promotional_Promote_Marketing-Home_Email-Marketing" fill-rule="nonzero">
            <rect id="Rectangle" x="0" y="0" width="120" height="120" />
            <polygon id="Path" fill="#192C55"
                points="78 90 42 87 19.86 46.86 68.82 15.49 109.42 59.33" />
            <polygon id="Path" fill="#FFFFFF"
                points="93.74 93.32 28.05 84.17 34.61 21.78 100.29 30.93" />
            <polygon id="Path" fill="#FFD527"
                points="84.88 91.08 37.12 84.43 41.69 40.85 89.46 47.51" />
            <polygon id="Path" fill="#C2E2FF"
                points="109.42 59.33 103.91 111.82 14.34 99.34 19.86 46.86 49.41 76.88 61.12 88.78 74.84 80.42" />
            <rect id="Rectangle" fill="#192C55"
                transform="translate(63.347473, 65.478835) rotate(-82.070000) translate(-63.347473, -65.478835) "
                x="62.8474726" y="54.6038352" width="1" height="21.75" />
            <rect id="Rectangle" fill="#192C55"
                transform="translate(62.813445, 70.426090) rotate(-82.070000) translate(-62.813445, -70.426090) "
                x="62.3134445" y="55.3560904" width="1" height="30.14" />
            <polygon id="Path" fill="#C2E2FF"
                points="103.91 111.82 14.34 99.34 49.41 76.88 63.31 67.98 74.84 80.42" />
            <line x1="74.84" y1="80.42" x2="101.58" y2="109.31" id="Path" fill="#C2E2FF" />
            <rect id="Rectangle" fill="#192C55"
                transform="translate(88.207511, 94.851766) rotate(-42.800000) translate(-88.207511, -94.851766) "
                x="87.7075107" y="75.1667661" width="1" height="39.37" />
            <line x1="17.15" y1="97.55" x2="49.41" y2="76.88" id="Path" fill="#C2E2FF" />
            <rect id="Rectangle" fill="#192C55"
                transform="translate(33.267875, 87.223388) rotate(-32.630000) translate(-33.267875, -87.223388) "
                x="14.1128755" y="86.7233883" width="38.31" height="1" />
            <ellipse id="Oval" fill="#116DFF"
                transform="translate(65.577034, 44.181207) rotate(-45.500000) translate(-65.577034, -44.181207) "
                cx="65.5770344" cy="44.1812068" rx="11.79" ry="12.21" />
            <path
                d="M65.19,50 L60.81,44.44 C59.8248503,43.2184333 60.0126043,41.4302994 61.23,40.44 C62.5130463,39.4938711 64.3170817,39.747147 65.29,41.01 L66.04,42.01 L67,41.2 C68.2830463,40.2538711 70.0870817,40.507147 71.06,41.77 C72.0371468,42.9958474 71.8453667,44.7798478 70.63,45.77 L65.19,50 Z"
                id="Path" fill="#FFB6AC" />
            <rect id="Rectangle" fill="#192C55"
                transform="translate(30.189400, 12.601000) rotate(-35.272421) translate(-30.189400, -12.601000) "
                x="29.6872048" y="4.13398925" width="1.00439036" height="16.9340215" />
            <rect id="Rectangle" fill="#192C55"
                transform="translate(25.824223, 20.587079) rotate(-54.950000) translate(-25.824223, -20.587079) "
                x="25.3242233" y="15.3270792" width="1" height="10.52" />
        </g>
    </g>
    <script xmlns="" />
</svg>