<svg width="60" height="60" viewBox="0 0 60 60" fill="none" xmlns="http://www.w3.org/2000/svg">
<g clip-path="url(#clip0_339_37116)">
<mask id="mask0_339_37116" style="mask-type:luminance" maskUnits="userSpaceOnUse" x="6" y="6" width="48" height="48">
<path d="M54 6H6V54H54V6Z" fill="white"/>
</mask>
<g mask="url(#mask0_339_37116)">
<mask id="mask1_339_37116" style="mask-type:luminance" maskUnits="userSpaceOnUse" x="8" y="7" width="43" height="45">
<path fill-rule="evenodd" clip-rule="evenodd" d="M31.7531 8.4299C26.3494 9.22772 20.6152 12.0922 15.8536 16.8538C12.9959 19.7115 10.8214 22.9208 9.36695 26.1933L8.45312 25.7872C9.95869 22.3997 12.2042 19.089 15.1465 16.1467C20.0448 11.2484 25.9706 8.27281 31.607 7.44062C37.2433 6.60845 42.6258 7.91893 46.3536 11.6467C50.0814 15.3745 51.3918 20.757 50.5597 26.3933C49.7275 32.0297 46.7519 37.9555 41.8536 42.8538C37.1729 47.5345 31.5552 50.4576 26.149 51.4348C20.7443 52.4117 15.5173 51.4463 11.6827 48.2966L12.3174 47.5239C15.8728 50.4442 20.7808 51.3889 25.9711 50.4507C31.1598 49.5129 36.5971 46.696 41.1465 42.1467C45.9081 37.385 48.7726 31.6508 49.5704 26.2472C50.3682 20.8436 49.0987 15.806 45.6465 12.3538C42.1943 8.90159 37.1567 7.63207 31.7531 8.4299Z" fill="url(#paint0_radial_339_37116)"/>
</mask>
<g mask="url(#mask1_339_37116)">
<g filter="url(#filter0_f_339_37116)">
<path d="M23.5 67C32.0604 67 39 60.0604 39 51.5C39 42.9396 32.0604 36 23.5 36C14.9396 36 8 42.9396 8 51.5C8 60.0604 14.9396 67 23.5 67Z" fill="#0021FF"/>
</g>
<g filter="url(#filter1_f_339_37116)">
<path d="M42 48.5C50.2843 48.5 57 41.7843 57 33.5C57 25.2157 50.2843 18.5 42 18.5C33.7157 18.5 27 25.2157 27 33.5C27 41.7843 33.7157 48.5 42 48.5Z" fill="#116DFF"/>
</g>
<g filter="url(#filter2_f_339_37116)">
<path d="M44 25.5C51.732 25.5 58 19.232 58 11.5C58 3.76801 51.732 -2.5 44 -2.5C36.268 -2.5 30 3.76801 30 11.5C30 19.232 36.268 25.5 44 25.5Z" fill="#5FF2AE"/>
</g>
</g>
<path d="M12.66 10.34C12.29 9.97 12.06 9.51 11.98 9H11.02C10.94 9.51 10.7 9.97 10.34 10.34C9.98 10.71 9.51 10.94 9 11.02V11.98C9.51 12.06 9.97 12.3 10.34 12.66C10.71 13.02 10.94 13.49 11.02 14H11.98C12.06 13.49 12.3 13.03 12.66 12.66C13.02 12.29 13.49 12.06 14 11.98V11.02C13.49 10.94 13.03 10.7 12.66 10.34Z" fill="#C2E2FF"/>
<path d="M49.0298 45.97C48.4898 45.43 48.1398 44.75 48.0298 44H46.9798C46.8598 44.75 46.5198 45.44 45.9798 45.97C45.4398 46.5 44.7598 46.86 44.0098 46.97V48.02C44.7598 48.14 45.4498 48.48 45.9798 49.02C46.5098 49.56 46.8698 50.24 46.9798 50.99H48.0298C48.1498 50.24 48.4998 49.55 49.0298 49.02C49.5598 48.49 50.2498 48.13 50.9998 48.02V46.97C50.2498 46.85 49.5598 46.51 49.0298 45.97Z" fill="#C2E2FF"/>
<path d="M13 50C14.1046 50 15 49.1046 15 48C15 46.8954 14.1046 46 13 46C11.8954 46 11 46.8954 11 48C11 49.1046 11.8954 50 13 50Z" fill="#116DFF"/>
</g>
<rect x="16" y="18" width="24" height="24" rx="6" fill="#C2E2FF"/>
<path d="M38 19C37.18 18.18 36.65 17.14 36.47 16H35.53C35.35 17.14 34.82 18.18 34 19C33.18 19.82 32.14 20.35 31 20.53V21.47C32.14 21.65 33.18 22.18 34 23C34.82 23.82 35.35 24.86 35.53 26H36.47C36.65 24.86 37.18 23.82 38 23C38.82 22.18 39.86 21.65 41 21.47V20.53C39.86 20.35 38.82 19.82 38 19Z" fill="#116DFF"/>
</g>
<path d="M22 42C24.2167 42 26.1043 41.2333 27.663 39.7C29.2217 38.1667 30.0007 36.3083 30 34.125C30 33.025 29.7917 32.0043 29.375 31.063C28.9583 30.1217 28.3833 29.284 27.65 28.55L22 23L16.35 28.55C15.6167 29.2833 15.0417 30.121 14.625 31.063C14.2083 32.005 14 33.0257 14 34.125C14 36.3083 14.779 38.1667 16.337 39.7C17.895 41.2333 19.7827 42 22 42ZM22 40V25.8L26.25 30C26.8333 30.55 27.2707 31.175 27.562 31.875C27.8533 32.575 27.9993 33.325 28 34.125C28 35.7417 27.4167 37.125 26.25 38.275C25.0833 39.425 23.6667 40 22 40Z" fill="#116DFF"/>
<defs>
<filter id="filter0_f_339_37116" x="6" y="34" width="35" height="35" filterUnits="userSpaceOnUse" color-interpolation-filters="sRGB">
<feFlood flood-opacity="0" result="BackgroundImageFix"/>
<feBlend mode="normal" in="SourceGraphic" in2="BackgroundImageFix" result="shape"/>
<feGaussianBlur stdDeviation="1" result="effect1_foregroundBlur_339_37116"/>
</filter>
<filter id="filter1_f_339_37116" x="15" y="6.5" width="54" height="54" filterUnits="userSpaceOnUse" color-interpolation-filters="sRGB">
<feFlood flood-opacity="0" result="BackgroundImageFix"/>
<feBlend mode="normal" in="SourceGraphic" in2="BackgroundImageFix" result="shape"/>
<feGaussianBlur stdDeviation="6" result="effect1_foregroundBlur_339_37116"/>
</filter>
<filter id="filter2_f_339_37116" x="17" y="-15.5" width="54" height="54" filterUnits="userSpaceOnUse" color-interpolation-filters="sRGB">
<feFlood flood-opacity="0" result="BackgroundImageFix"/>
<feBlend mode="normal" in="SourceGraphic" in2="BackgroundImageFix" result="shape"/>
<feGaussianBlur stdDeviation="6.5" result="effect1_foregroundBlur_339_37116"/>
</filter>
<radialGradient id="paint0_radial_339_37116" cx="0" cy="0" r="1" gradientUnits="userSpaceOnUse" gradientTransform="translate(29.63 29.5003) scale(21.17 21.17)">
<stop offset="0.106628" stop-color="#6F56F9"/>
<stop offset="0.359375" stop-color="#116DFF"/>
<stop offset="0.536458" stop-color="white" stop-opacity="0"/>
<stop offset="0.776042" stop-color="#19D1DF"/>
</radialGradient>
<clipPath id="clip0_339_37116">
<rect width="48" height="48" fill="white" transform="translate(6 6)"/>
</clipPath>
</defs>
</svg>
