<svg xmlns="http://www.w3.org/2000/svg" width="120" height="120" fill="none" viewBox="0 0 120 120">
    <g clip-path="url(#clip0_4013_192673)">
        <path fill="#28BF9A" d="M31.07 83.67a7.86 7.86 0 100-15.72 7.86 7.86 0 000 15.72z"></path>
        <path fill="#116DFF"
            d="M106.115 80.543l12.466 12.466a3.006 3.006 0 01-4.25 4.25l-12.466-12.466a3.004 3.004 0 114.25-4.25zM25.92 21.84c6.622 0 11.99 5.368 11.99 11.99s-5.368 11.99-11.99 11.99-11.99-5.368-11.99-11.99 5.368-11.99 11.99-11.99z"></path>
        <path fill="#C2E2FF"
            d="M78.26 34.81a23.844 23.844 0 0115.187 16.987 17.165 17.165 0 016.623 3.253c.067.48.117.96.15 1.44a27.994 27.994 0 01-2.02 13.03A28.06 28.06 0 0184.72 84c-.43.22-.87.42-1.31.61a17.2 17.2 0 01-6.625-4.425A23.84 23.84 0 1178.26 34.81zM16.043 59.267l2.772 2.772-2.772 2.772-2.772-2.772 2.772-2.772zM6.11 48.61l1.43 4.44 4.44 1.43-4.44 1.43-1.43 4.44-1.43-4.44-4.44-1.43 4.44-1.43 1.43-4.44zm99.95-25.33l1.68 5.21 5.2 1.67-5.2 1.68-1.68 5.21-1.68-5.21-5.21-1.68 5.21-1.67 1.68-5.21z"></path>
        <path fill="#fff"
            d="M73.08 54.47c1.658 0 3.171.622 4.318 1.645l-.188.185a15.26 15.26 0 011.08-1c.452.038.9.112 1.34.22a9.28 9.28 0 016.46 12.6 9.27 9.27 0 01-12.11 5l-.11-.05a9.161 9.161 0 01-1.21-.62v-.13l-.06-.3c-.09-.44-.17-.86-.22-1.29a17.164 17.164 0 01-.12-3.333 6.49 6.49 0 01.82-12.927zM56.8 46.45a4.01 4.01 0 110 8.02 4.01 4.01 0 010-8.02zm21.46-11.64a8 8 0 11-16 0 23.83 23.83 0 0116 0z"></path>
        <path fill="#192C55"
            d="M78.31 55.34a17.21 17.21 0 0121.78-.28c.375.297.738.61 1.086.937l.344.333v-.04a17.168 17.168 0 010 24.3 17.16 17.16 0 01-18.11 4A17.21 17.21 0 0172.771 72.85l-.09-.361v-.13l-.06-.3c-.09-.44-.17-.86-.22-1.29a17.161 17.161 0 01.71-7.66l.16-.46v-.14c.323-.895.728-1.759 1.21-2.58a17 17 0 012.75-3.59c.346-.36.706-.694 1.08-1zm21.93 1.12a16.18 16.18 0 00-20.59-.94c-.607.449-1.178.944-1.71 1.48a15.88 15.88 0 00-3.564 5.394l-.166.436h-.52l.47.17a16.34 16.34 0 00-.696 8.41l.076.39.07.3c.08.35.16.68.26 1a16.18 16.18 0 0010.85 10.83 16.17 16.17 0 0015.824-3.742l.266-.258v-.04a16.151 16.151 0 00-.57-23.43zm-52.78-25.9c.434 2.89-12.276 5.706-19.752 6.874l-.828.126a106.578 106.578 0 01-14.52 1.25l-.623-.004c-3.691-.05-6.448-.55-6.647-1.866-.21-1.39 2.72-3 8.74-4.62l.26 1-.697.191c-6.098 1.705-7.36 2.981-7.303 3.309.15 1 7.35 1.78 20.59-.22l1.032-.16c12.384-1.965 18.683-4.691 18.71-5.69l-.002-.04c0-.29-1.81-1.31-9.62-.93v-1l.805-.036c6.317-.255 9.634.357 9.855 1.816z"></path>
    </g>
    <defs>
        <clipPath id="clip0_4013_192673">
            <path fill="#fff" d="M0 0H120V120H0z"></path>
        </clipPath>
    </defs>
</svg>