<svg xmlns="http://www.w3.org/2000/svg" width="120" height="120" viewBox="0 0 120 120" fill="none">
    <script xmlns="" />
    <g clip-path="url(#clip0_6_94)">
        <path d="M57.4297 31.5806L47.3494 60.4302L76.199 70.5106L86.2793 41.661L57.4297 31.5806Z"
            fill="#116DFF" />
        <path d="M98 74H74L79 60H103L98 74Z" fill="#C2E2FF" />
        <path
            d="M63 66.5C63 57.9396 56.0604 51 47.5 51C38.9396 51 32 57.9396 32 66.5C32 75.0604 38.9396 82 47.5 82C56.0604 82 63 75.0604 63 66.5Z"
            fill="#192C55" />
        <path
            d="M88.1201 80.2L74.4901 86.8C71.562 88.2184 68.1905 88.4157 65.1169 87.3487C62.0433 86.2817 59.5194 84.0376 58.1001 81.11V81.11C57.398 79.6609 56.9882 78.0877 56.8942 76.4802C56.8002 74.8727 57.0238 73.2624 57.5521 71.7414C58.0805 70.2203 58.9034 68.8182 59.9737 67.6152C61.044 66.4122 62.3408 65.4318 63.7901 64.73L77.4301 58.12C80.3571 56.7048 83.7262 56.5091 86.7973 57.576C89.8685 58.6428 92.3907 60.885 93.8101 63.81V63.81C95.2284 66.7381 95.4258 70.1096 94.3588 73.1832C93.2917 76.2567 91.0477 78.7807 88.1201 80.2ZM69.0001 13C69.0001 11.4087 68.3679 9.88258 67.2427 8.75736C66.1175 7.63214 64.5914 7 63.0001 7C61.4088 7 59.8826 7.63214 58.7574 8.75736C57.6322 9.88258 57.0001 11.4087 57.0001 13V13C57.0001 14.5913 57.6322 16.1174 58.7574 17.2426C59.8826 18.3679 61.4088 19 63.0001 19C64.5914 19 66.1175 18.3679 67.2427 17.2426C68.3679 16.1174 69.0001 14.5913 69.0001 13Z"
            fill="#28BF9A" />
        <path
            d="M98 111H22V74H98V111ZM78 22.21C77.7325 20.7505 76.8966 19.4568 75.676 18.6131C74.4554 17.7694 72.9499 17.4445 71.49 17.71L45.59 22.43C44.8592 22.552 44.16 22.8178 43.5327 23.2121C42.9054 23.6063 42.3626 24.121 41.9357 24.7266C41.5087 25.3321 41.2062 26.0162 41.0456 26.7395C40.885 27.4628 40.8695 28.2107 41 28.94V28.94C41.2675 30.3995 42.1034 31.6932 43.324 32.5369C44.5446 33.3806 46.0501 33.7054 47.51 33.44L73.4 28.72C74.1317 28.5991 74.832 28.3341 75.4604 27.9404C76.0888 27.5467 76.6328 27.0321 77.0607 26.4265C77.4887 25.8209 77.7921 25.1363 77.9533 24.4125C78.1146 23.6886 78.1304 22.94 78 22.21ZM46 74H22L17 60H41L46 74Z"
            fill="#C2E2FF" />
        <path d="M79 74H71V86H79V74Z" fill="white" />
        <path d="M46 75H22V74H46V75ZM46 75H45V111H46V75Z" fill="#192C55" />
    </g>
    <defs>
        <clipPath id="clip0_6_94">
            <rect width="120" height="120" fill="white" />
        </clipPath>
    </defs>
    <script xmlns="" />
</svg>