<svg width="32" height="32" viewBox="0 0 32 32" fill="none" xmlns="http://www.w3.org/2000/svg">
<path d="M29.3337 8.73317C29.3178 8.15798 29.2733 7.58394 29.2003 7.01317C29.1006 6.51338 28.9347 6.02911 28.707 5.57317C28.4678 5.07916 28.1479 4.62853 27.7603 4.23984C27.3686 3.85594 26.9186 3.53643 26.427 3.29317C25.9704 3.07006 25.4861 2.90864 24.987 2.81317C24.4218 2.72775 23.8518 2.67876 23.2803 2.6665H8.73366C8.15847 2.68237 7.58442 2.72687 7.01366 2.79984C6.51387 2.89955 6.0296 3.06546 5.57366 3.29317C5.07965 3.53236 4.62901 3.85231 4.24033 4.23984C3.85643 4.63157 3.53692 5.08158 3.29366 5.57317C3.07055 6.02978 2.90913 6.51402 2.81366 7.01317C2.72824 7.57833 2.67925 8.14839 2.66699 8.71984V23.2665C2.68286 23.8417 2.72736 24.4157 2.80033 24.9865C2.90004 25.4863 3.06594 25.9706 3.29366 26.4265C3.53285 26.9205 3.8528 27.3711 4.24033 27.7598C4.63206 28.1437 5.08207 28.4632 5.57366 28.7065C6.03026 28.9296 6.51451 29.091 7.01366 29.1865C7.57882 29.2719 8.14888 29.3209 8.72033 29.3332H23.267C23.8422 29.3173 24.4162 29.2728 24.987 29.1998C25.4868 29.1001 25.9711 28.9342 26.427 28.7065C26.921 28.4673 27.3716 28.1474 27.7603 27.7598C28.1442 27.3681 28.4637 26.9181 28.707 26.4265C28.9301 25.9699 29.0915 25.4857 29.187 24.9865C29.2724 24.4213 29.3214 23.8513 29.3337 23.2798V8.73317ZM16.307 25.3332C14.7056 25.3264 13.1321 24.9136 11.7337 24.1332L6.66699 25.4665L8.00033 20.5065C7.13988 19.062 6.67967 17.4145 6.66699 15.7332C6.6723 13.8437 7.2366 11.9981 8.28881 10.4288C9.34102 8.85944 10.8341 7.63654 12.58 6.91412C14.3258 6.1917 16.2465 6.00206 18.0999 6.36909C19.9534 6.73611 21.6568 7.64339 22.9956 8.97664C24.3344 10.3099 25.2487 12.0095 25.6235 13.8614C25.9982 15.7133 25.8165 17.6347 25.1014 19.3836C24.3862 21.1324 23.1695 22.6306 21.6046 23.6893C20.0396 24.748 18.1964 25.32 16.307 25.3332ZM16.307 7.8265C14.8934 7.84268 13.5093 8.23315 12.2957 8.95815C11.0821 9.68316 10.0823 10.7168 9.39805 11.9539C8.71381 13.1909 8.36959 14.5872 8.40044 16.0005C8.43128 17.4139 8.8361 18.7938 9.57366 19.9998L9.76033 20.3065L8.96032 23.2265L12.0003 22.3998L12.2937 22.5732C13.5064 23.2875 14.8862 23.6692 16.2937 23.6798C18.4154 23.6798 20.4502 22.837 21.9505 21.3367C23.4508 19.8364 24.2937 17.8016 24.2937 15.6798C24.2937 13.5581 23.4508 11.5233 21.9505 10.023C20.4502 8.52269 18.4154 7.67984 16.2937 7.67984L16.307 7.8265ZM20.9737 19.1865C20.799 19.4778 20.5652 19.7292 20.2873 19.9244C20.0094 20.1196 19.6936 20.2543 19.3603 20.3198C18.8625 20.4125 18.3494 20.3804 17.867 20.2265C17.4129 20.0842 16.9677 19.915 16.5337 19.7198C14.8853 18.8927 13.4796 17.6524 12.4537 16.1198C11.8975 15.409 11.5594 14.5522 11.4803 13.6532C11.4724 13.2796 11.5431 12.9084 11.6878 12.5639C11.8325 12.2194 12.048 11.9091 12.3203 11.6532C12.4005 11.5622 12.499 11.4891 12.6092 11.4386C12.7194 11.3881 12.8391 11.3612 12.9603 11.3598H13.3337C13.4803 11.3598 13.6803 11.3598 13.867 11.7732C14.0537 12.1865 14.547 13.4265 14.6137 13.5465C14.6464 13.6105 14.6635 13.6813 14.6635 13.7532C14.6635 13.825 14.6464 13.8959 14.6137 13.9598C14.5555 14.1051 14.4745 14.2402 14.3737 14.3598C14.2537 14.5065 14.1203 14.6798 14.0137 14.7865C13.907 14.8932 13.7737 15.0265 13.907 15.2665C14.2704 15.8783 14.7194 16.4351 15.2403 16.9198C15.8082 17.4216 16.4575 17.823 17.1603 18.1065C17.4003 18.2265 17.547 18.2132 17.6803 18.1065C17.8137 17.9998 18.2803 17.4132 18.4403 17.1732C18.6003 16.9332 18.7603 16.9732 18.9737 17.0532C19.187 17.1332 20.3737 17.7065 20.6137 17.8265C20.8537 17.9465 21.0003 17.9998 21.067 18.1065C21.1248 18.4555 21.0927 18.8134 20.9737 19.1465V19.1865Z" fill="black"/>
</svg>
