<svg width="32" height="32" viewBox="0 0 32 32" fill="none" xmlns="http://www.w3.org/2000/svg">
<path d="M9.72167 27.7652L2.66701 29.3332L4.23501 22.2785C3.20259 20.3469 2.66393 18.19 2.66701 15.9998C2.66701 8.63584 8.63634 2.6665 16.0003 2.6665C23.3643 2.6665 29.3337 8.63584 29.3337 15.9998C29.3337 23.3638 23.3643 29.3332 16.0003 29.3332C13.8102 29.3362 11.6532 28.7976 9.72167 27.7652ZM9.33367 15.9998C9.33367 17.7679 10.0361 19.4636 11.2863 20.7139C12.5365 21.9641 14.2322 22.6665 16.0003 22.6665C17.7684 22.6665 19.4641 21.9641 20.7144 20.7139C21.9646 19.4636 22.667 17.7679 22.667 15.9998H20.0003C20.0003 17.0607 19.5789 18.0781 18.8288 18.8283C18.0786 19.5784 17.0612 19.9998 16.0003 19.9998C14.9395 19.9998 13.9221 19.5784 13.1719 18.8283C12.4218 18.0781 12.0003 17.0607 12.0003 15.9998H9.33367Z" fill="black"/>
</svg>
