<svg width="32" height="32" viewBox="0 0 32 32" fill="none" xmlns="http://www.w3.org/2000/svg">
<path d="M26.6663 16.0002C26.6663 10.9722 26.6663 8.4575 25.1037 6.89616C23.541 5.33483 21.0277 5.3335 15.9997 5.3335C10.9717 5.3335 8.45701 5.3335 6.89567 6.89616C5.33434 8.45883 5.33301 10.9722 5.33301 16.0002V24.0002C5.33301 25.2575 5.33301 25.8855 5.72367 26.2762C6.11434 26.6668 6.74234 26.6668 7.99967 26.6668H15.9997C21.0277 26.6668 23.5423 26.6668 25.1037 25.1042C26.665 23.5415 26.6663 21.0282 26.6663 16.0002Z" stroke="black" stroke-width="2"/>
<path d="M12 13.3335H20M12 18.6668H16" stroke="black" stroke-width="2" stroke-linecap="round" stroke-linejoin="round"/>
</svg>
