<svg width="32" height="32" viewBox="0 0 32 32" fill="none" xmlns="http://www.w3.org/2000/svg">
<path d="M11.7199 25.784C13.497 27.2213 15.7143 28.0038 17.9999 28C19.5079 28 20.9399 27.666 22.2259 27.066L26.8039 27.98C26.9652 28.0121 27.132 28.0039 27.2894 27.9562C27.4468 27.9085 27.59 27.8227 27.7063 27.7064C27.8226 27.59 27.9084 27.4469 27.9561 27.2895C28.0039 27.1321 28.012 26.9653 27.9799 26.804L27.0659 22.228C27.6659 20.942 27.9999 19.508 27.9999 18C28.0032 15.7151 27.2208 13.4985 25.7839 11.722C26.0703 13.2025 26.075 14.7237 25.7979 16.206C26.2197 18.0385 25.9825 19.961 25.1279 21.636C25.0252 21.837 24.9935 22.0667 25.0379 22.288L25.7259 25.726L22.2859 25.038C22.0653 24.994 21.8363 25.0257 21.6359 25.128C19.9603 25.983 18.037 26.2203 16.2039 25.798C14.7216 26.0751 13.2004 26.0704 11.7199 25.784ZM13.9999 4C12.3182 3.99952 10.6636 4.42315 9.18909 5.23169C7.71456 6.04022 6.46774 7.20756 5.56397 8.62572C4.6602 10.0439 4.12867 11.6671 4.01854 13.3451C3.90841 15.0232 4.22324 16.7019 4.93391 18.226L4.01991 22.804C3.9878 22.9653 3.99597 23.1321 4.0437 23.2895C4.09143 23.4469 4.17725 23.59 4.29356 23.7064C4.40986 23.8227 4.55306 23.9085 4.71046 23.9562C4.86785 24.0039 5.0346 24.0121 5.19591 23.98L9.77191 23.066C11.1286 23.6975 12.6096 24.0164 14.1059 23.9993C15.6023 23.9823 17.0757 23.6296 18.4175 22.9673C19.7594 22.305 20.9356 21.3501 21.8593 20.1728C22.783 18.9955 23.4307 17.6259 23.7546 16.165C24.0786 14.704 24.0706 13.189 23.7311 11.7316C23.3917 10.2742 22.7295 8.91158 21.7934 7.74415C20.8572 6.57671 19.671 5.63426 18.3222 4.98625C16.9734 4.33824 15.4963 4.00121 13.9999 4Z" fill="black"/>
</svg>
