<svg width="32" height="32" viewBox="0 0 32 32" fill="none" xmlns="http://www.w3.org/2000/svg">
<path fill-rule="evenodd" clip-rule="evenodd" d="M27.3907 8.93867C28 10.4093 28 12.272 28 16C28 19.728 28 21.592 27.3907 23.0613C26.5787 25.0214 25.0214 26.5787 23.0613 27.3907C21.592 28 19.728 28 16 28H12C8.22933 28 6.34267 28 5.172 26.828C4 25.6573 4 23.7707 4 20V16C4 12.272 4 10.4093 4.60933 8.93867C5.42128 6.97858 6.97858 5.42128 8.93867 4.60933C10.4093 4 12.272 4 16 4C19.728 4 21.592 4 23.0613 4.60933C25.0214 5.42128 26.5787 6.97858 27.3907 8.93867ZM10.6667 13.3333C10.6667 12.9797 10.8071 12.6406 11.0572 12.3905C11.3072 12.1405 11.6464 12 12 12H20C20.3536 12 20.6928 12.1405 20.9428 12.3905C21.1929 12.6406 21.3333 12.9797 21.3333 13.3333C21.3333 13.687 21.1929 14.0261 20.9428 14.2761C20.6928 14.5262 20.3536 14.6667 20 14.6667H12C11.6464 14.6667 11.3072 14.5262 11.0572 14.2761C10.8071 14.0261 10.6667 13.687 10.6667 13.3333ZM10.6667 18.6667C10.6667 18.313 10.8071 17.9739 11.0572 17.7239C11.3072 17.4738 11.6464 17.3333 12 17.3333H16C16.3536 17.3333 16.6928 17.4738 16.9428 17.7239C17.1929 17.9739 17.3333 18.313 17.3333 18.6667C17.3333 19.0203 17.1929 19.3594 16.9428 19.6095C16.6928 19.8595 16.3536 20 16 20H12C11.6464 20 11.3072 19.8595 11.0572 19.6095C10.8071 19.3594 10.6667 19.0203 10.6667 18.6667Z" fill="black"/>
</svg>
