<svg width="32" height="32" viewBox="0 0 32 32" fill="none" xmlns="http://www.w3.org/2000/svg">
<path d="M15.9995 13.5653C18.3542 9.85422 20.4199 7.99911 22.1968 8C24.8635 8 26.5475 10.9507 27.5302 14.956C28.4688 18.7813 28.1968 24 24.8635 24C23.3782 24 21.3328 21.9133 19.3328 19.1307C18.0601 17.3773 16.9446 15.515 15.9995 13.5653ZM15.9995 13.5653C13.6448 9.85422 11.5791 7.99911 9.80217 8C7.1355 8 5.4515 10.9507 4.46884 14.956C3.53017 18.7813 3.80217 24 7.1355 24C8.62084 24 10.6662 21.9133 12.6662 19.1307C13.9995 17.2756 15.1106 15.4204 15.9995 13.5653Z" stroke="black" stroke-width="2.66667" stroke-linecap="round" stroke-linejoin="round"/>
</svg>
