<svg width="32" height="32" viewBox="0 0 32 32" fill="none" xmlns="http://www.w3.org/2000/svg">
<path d="M2.66699 29.3332L9.72166 27.7652C11.6532 28.7976 13.8102 29.3362 16.0003 29.3332C23.3643 29.3332 29.3337 23.3638 29.3337 15.9998C29.3337 8.63584 23.3643 2.6665 16.0003 2.6665C8.63633 2.6665 2.66699 8.63584 2.66699 15.9998C2.66699 18.2705 3.23366 20.4078 4.23499 22.2785L2.66699 29.3332ZM20.599 9.33317L20.3657 11.9998H22.667V14.6665H20.1323L19.899 17.3332H22.667V19.9998H19.6657L19.4323 22.6665H16.755L16.9883 19.9998H14.311L14.0777 22.6665H11.403L11.6363 19.9998H9.33366V17.3332H11.867L12.1017 14.6665H9.33366V11.9998H12.3337L12.5683 9.33317H15.2443L15.011 11.9998H17.6883L17.9217 9.33317H20.599ZM14.7777 14.6665L14.5443 17.3332H17.2217L17.455 14.6665H14.7777Z" fill="black"/>
</svg>
