<svg width="32" height="32" viewBox="0 0 32 32" fill="none" xmlns="http://www.w3.org/2000/svg">
<path d="M8.60699 25.3333L2.66699 30V5.33333C2.66699 4.97971 2.80747 4.64057 3.05752 4.39052C3.30756 4.14048 3.6467 4 4.00033 4H28.0003C28.3539 4 28.6931 4.14048 28.9431 4.39052C29.1932 4.64057 29.3337 4.97971 29.3337 5.33333V24C29.3337 24.3536 29.1932 24.6928 28.9431 24.9428C28.6931 25.1929 28.3539 25.3333 28.0003 25.3333H8.60699ZM9.33366 13.3333C9.33366 15.1014 10.036 16.7971 11.2863 18.0474C12.5365 19.2976 14.2322 20 16.0003 20C17.7684 20 19.4641 19.2976 20.7144 18.0474C21.9646 16.7971 22.667 15.1014 22.667 13.3333H20.0003C20.0003 14.3942 19.5789 15.4116 18.8288 16.1618C18.0786 16.9119 17.0612 17.3333 16.0003 17.3333C14.9395 17.3333 13.922 16.9119 13.1719 16.1618C12.4218 15.4116 12.0003 14.3942 12.0003 13.3333H9.33366Z" fill="black"/>
</svg>
