<svg width="32" height="32" viewBox="0 0 32 32" fill="none" xmlns="http://www.w3.org/2000/svg">
<path d="M5.33301 16.0002C5.33301 13.1712 6.45681 10.4581 8.4572 8.45769C10.4576 6.4573 13.1707 5.3335 15.9997 5.3335C18.8287 5.3335 21.5418 6.4573 23.5421 8.45769C25.5425 10.4581 26.6663 13.1712 26.6663 16.0002V22.7868C26.6663 23.9175 26.6663 24.4802 26.4983 24.9322C26.3648 25.2903 26.1557 25.6156 25.8854 25.8859C25.6151 26.1562 25.2898 26.3652 24.9317 26.4988C24.4797 26.6668 23.9157 26.6668 22.7863 26.6668H15.9997C13.1707 26.6668 10.4576 25.543 8.4572 23.5426C6.45681 21.5422 5.33301 18.8291 5.33301 16.0002Z" stroke="black" stroke-width="2"/>
<path d="M12 14.667H20M16 20.0003H20" stroke="black" stroke-width="2" stroke-linecap="round" stroke-linejoin="round"/>
</svg>
