<svg width="32" height="32" viewBox="0 0 32 32" fill="none" xmlns="http://www.w3.org/2000/svg">
<path d="M13.9999 4C12.3182 3.99952 10.6636 4.42315 9.18909 5.23169C7.71456 6.04022 6.46774 7.20756 5.56397 8.62572C4.6602 10.0439 4.12867 11.6671 4.01854 13.3451C3.90841 15.0232 4.22324 16.7019 4.93391 18.226L4.01991 22.804C3.9878 22.9653 3.99597 23.1321 4.0437 23.2895C4.09143 23.4469 4.17725 23.59 4.29356 23.7064C4.40986 23.8227 4.55306 23.9085 4.71046 23.9562C4.86785 24.0039 5.0346 24.0121 5.19591 23.98L9.77191 23.066C11.1286 23.6975 12.6096 24.0164 14.1059 23.9993C15.6023 23.9823 17.0757 23.6296 18.4175 22.9673C19.7594 22.305 20.9356 21.3501 21.8593 20.1728C22.783 18.9955 23.4307 17.6259 23.7546 16.165C24.0786 14.704 24.0706 13.189 23.7311 11.7316C23.3917 10.2742 22.7295 8.91158 21.7934 7.74415C20.8572 6.57671 19.671 5.63426 18.3222 4.98625C16.9734 4.33824 15.4963 4.00121 13.9999 4ZM5.99991 14C6.00035 12.2567 6.5702 10.5613 7.62276 9.17171C8.67532 7.78208 10.153 6.77429 11.8309 6.30166C13.5089 5.82903 15.2953 5.91742 16.9185 6.55339C18.5416 7.18937 19.9125 8.3381 20.8228 9.82485C21.733 11.3116 22.1327 13.055 21.961 14.7898C21.7894 16.5246 21.0558 18.1558 19.8718 19.4353C18.6879 20.7149 17.1184 21.5726 15.4021 21.8782C13.6858 22.1837 11.9167 21.9203 10.3639 21.128C10.163 21.0253 9.93317 20.9936 9.71191 21.038L6.27391 21.726L6.96191 18.286C7.00588 18.0654 6.97417 17.8364 6.87191 17.636C6.29811 16.5099 5.99928 15.2639 5.99991 14ZM17.9999 28C15.7143 28.0038 13.497 27.2213 11.7199 25.784C13.2004 26.0704 14.7216 26.0751 16.2039 25.798C18.037 26.2203 19.9603 25.983 21.6359 25.128C21.8369 25.0253 22.0666 24.9936 22.2879 25.038L25.7259 25.726L25.0379 22.286C24.9939 22.0654 25.0257 21.8364 25.1279 21.636C25.9829 19.9604 26.2202 18.0371 25.7979 16.204C26.0745 14.723 26.0698 13.2032 25.7839 11.724C27.2204 13.5 28.0028 15.7158 27.9999 18C28.0011 19.4606 27.6823 20.9038 27.0659 22.228L27.9799 26.804C28.012 26.9653 28.0039 27.1321 27.9561 27.2895C27.9084 27.4469 27.8226 27.59 27.7063 27.7064C27.59 27.8227 27.4468 27.9085 27.2894 27.9562C27.132 28.0039 26.9652 28.0121 26.8039 27.98L22.2259 27.066C20.9023 27.6821 19.4599 28.0009 17.9999 28Z" fill="black"/>
</svg>
