<svg width="32" height="32" viewBox="0 0 32 32" fill="none" xmlns="http://www.w3.org/2000/svg">
<path d="M8.00033 18.6665H18.667V15.9998H8.00033V18.6665ZM8.00033 14.6665H24.0003V11.9998H8.00033V14.6665ZM8.00033 10.6665H24.0003V7.99984H8.00033V10.6665ZM2.66699 29.3332V5.33317C2.66699 4.59984 2.92833 3.97228 3.45099 3.4505C3.97366 2.92873 4.60121 2.66739 5.33366 2.6665H26.667C27.4003 2.6665 28.0283 2.92784 28.551 3.4505C29.0737 3.97317 29.3345 4.60073 29.3337 5.33317V21.3332C29.3337 22.0665 29.0728 22.6945 28.551 23.2172C28.0292 23.7398 27.4012 24.0007 26.667 23.9998H8.00033L2.66699 29.3332ZM6.86699 21.3332H26.667V5.33317H5.33366V22.8332L6.86699 21.3332Z" fill="black"/>
</svg>
