<svg width="32" height="32" viewBox="0 0 32 32" fill="none" xmlns="http://www.w3.org/2000/svg">
<path d="M2.667 15.9998C2.667 8.63584 8.63634 2.6665 16.0003 2.6665C23.3643 2.6665 29.3337 8.63584 29.3337 15.9998C29.3337 23.3638 23.3643 29.3332 16.0003 29.3332H2.667L6.57234 25.4278C5.33244 24.1911 4.34915 22.7215 3.67895 21.1035C3.00874 19.4856 2.66484 17.7511 2.667 15.9998ZM9.10434 26.6665H16.0003C18.11 26.6665 20.1723 26.0409 21.9264 24.8688C23.6805 23.6968 25.0477 22.0309 25.8551 20.0818C26.6624 18.1327 26.8736 15.988 26.462 13.9189C26.0505 11.8497 25.0346 9.94912 23.5428 8.45736C22.051 6.9656 20.1504 5.9497 18.0813 5.53813C16.0122 5.12655 13.8675 5.33779 11.9184 6.14512C9.9693 6.95246 8.3034 8.31963 7.13133 10.0738C5.95926 11.8279 5.33367 13.8902 5.33367 15.9998C5.33367 18.8692 6.46834 21.5532 8.45767 23.5425L10.343 25.4278L9.10434 26.6665ZM14.667 7.99984H17.3337V23.9998H14.667V7.99984ZM9.33367 11.9998H12.0003V19.9998H9.33367V11.9998ZM20.0003 11.9998H22.667V19.9998H20.0003V11.9998Z" fill="black"/>
</svg>
