<svg width="32" height="32" viewBox="0 0 32 32" fill="none" xmlns="http://www.w3.org/2000/svg">
<path fill-rule="evenodd" clip-rule="evenodd" d="M22.666 4C24.4341 4 26.1298 4.70238 27.3801 5.95262C28.6303 7.20286 29.3327 8.89856 29.3327 10.6667V21.3333C29.3327 23.1014 28.6303 24.7971 27.3801 26.0474C26.1298 27.2976 24.4341 28 22.666 28H3.99935C3.64573 28 3.30659 27.8595 3.05654 27.6095C2.80649 27.3594 2.66602 27.0203 2.66602 26.6667V10.6667C2.66602 8.89856 3.36839 7.20286 4.61864 5.95262C5.86888 4.70238 7.56457 4 9.33268 4H22.666ZM11.9993 13.3333C11.6728 13.3334 11.3576 13.4533 11.1135 13.6703C10.8695 13.8873 10.7136 14.1863 10.6753 14.5107L10.666 14.6667V17.3333C10.6664 17.6732 10.7965 18 11.0298 18.2472C11.2631 18.4943 11.582 18.643 11.9212 18.6629C12.2605 18.6828 12.5945 18.5724 12.8551 18.3543C13.1157 18.1362 13.2832 17.8268 13.3233 17.4893L13.3327 17.3333V14.6667C13.3327 14.313 13.1922 13.9739 12.9422 13.7239C12.6921 13.4738 12.353 13.3333 11.9993 13.3333ZM19.9993 13.3333C19.6457 13.3333 19.3066 13.4738 19.0565 13.7239C18.8065 13.9739 18.666 14.313 18.666 14.6667V17.3333C18.666 17.687 18.8065 18.0261 19.0565 18.2761C19.3066 18.5262 19.6457 18.6667 19.9993 18.6667C20.353 18.6667 20.6921 18.5262 20.9422 18.2761C21.1922 18.0261 21.3327 17.687 21.3327 17.3333V14.6667C21.3327 14.313 21.1922 13.9739 20.9422 13.7239C20.6921 13.4738 20.353 13.3333 19.9993 13.3333Z" fill="black"/>
</svg>
