<svg width="32" height="32" viewBox="0 0 32 32" fill="none" xmlns="http://www.w3.org/2000/svg">
<path d="M16.135 5.38818C13.2848 5.38818 10.5513 6.52043 8.53586 8.53585C6.52044 10.5513 5.38819 13.2848 5.38819 16.135C5.38819 18.9972 6.50467 21.5956 8.32924 23.5216L8.93106 24.1569L7.41814 26.8818H16.135C17.5463 26.8818 18.9438 26.6038 20.2476 26.0638C21.5515 25.5237 22.7362 24.7321 23.7341 23.7341C24.7321 22.7362 25.5237 21.5515 26.0638 20.2476C26.6038 18.9438 26.8818 17.5463 26.8818 16.135C26.8818 14.7237 26.6038 13.3262 26.0638 12.0224C25.5237 10.7185 24.7321 9.53378 23.7341 8.53585C22.7362 7.53792 21.5515 6.74631 20.2476 6.20623C18.9438 5.66616 17.5463 5.38818 16.135 5.38818ZM3.00001 16.135C3.00001 8.8809 8.88091 3 16.135 3C23.3891 3 29.27 8.8809 29.27 16.135C29.27 23.3891 23.3891 29.27 16.135 29.27H3.35824L6.00912 24.5008C4.06061 22.1488 2.99611 19.1893 3.00001 16.135ZM11.3586 12.5527H20.9114V14.9409H11.3586V12.5527ZM11.3586 17.3291H18.5232V19.7173H11.3586V17.3291Z" fill="black"/>
</svg>
