<svg width="32" height="32" viewBox="0 0 32 32" fill="none" xmlns="http://www.w3.org/2000/svg">
<path d="M11 14C12.3261 14 13.5979 13.4732 14.5355 12.5355C15.4732 11.5979 16 10.3261 16 9C16 7.67392 15.4732 6.40215 14.5355 5.46447C13.5979 4.52678 12.3261 4 11 4C9.67392 4 8.40215 4.52678 7.46447 5.46447C6.52678 6.40215 6 7.67392 6 9C6 10.3261 6.52678 11.5979 7.46447 12.5355C8.40215 13.4732 9.67392 14 11 14ZM19.844 12.46C20.8681 12.1542 21.9312 11.9992 23 12C24.0688 11.9992 25.1319 12.1542 26.156 12.46C26.6165 11.8691 26.9018 11.1608 26.9795 10.4157C27.0571 9.67056 26.9239 8.91863 26.5951 8.2455C26.2663 7.57237 25.7551 7.00511 25.1197 6.60831C24.4842 6.21152 23.7501 6.00114 23.001 6.00114C22.2519 6.00114 21.5178 6.21152 20.8823 6.60831C20.2469 7.00511 19.7357 7.57237 19.4069 8.2455C19.0781 8.91863 18.9449 9.67056 19.0225 10.4157C19.1002 11.1608 19.3855 11.8691 19.846 12.46M14.514 16H6C5.20435 16 4.44129 16.3161 3.87868 16.8787C3.31607 17.4413 3 18.2044 3 19V19.15C3 19.15 3 25 11 25C11.412 25 11.8033 24.9847 12.174 24.954C12.0579 24.3091 11.9997 23.6552 12 23C12 20.34 12.944 17.9 14.514 16ZM23 32C24.9745 31.9998 26.8941 31.3503 28.4631 30.1516C30.0321 28.9529 31.1633 27.2715 31.6825 25.3665C32.2017 23.4615 32.08 21.4386 31.3362 19.6096C30.5923 17.7806 29.2677 16.2469 27.5663 15.2449C25.865 14.243 23.8813 13.8283 21.921 14.0648C19.9608 14.3013 18.1327 15.1759 16.7185 16.5539C15.3043 17.9318 14.3824 19.7365 14.095 21.6899C13.8076 23.6434 14.1706 25.6372 15.128 27.364L14.038 30.942C13.9958 31.0836 13.9927 31.2341 14.0289 31.3774C14.0652 31.5206 14.1395 31.6515 14.244 31.756C14.3485 31.8605 14.4794 31.9348 14.6226 31.9711C14.7659 32.0073 14.9164 32.0042 15.058 31.962L18.638 30.874C19.973 31.6131 21.4741 32.0005 23 32ZM18 21C18 20.7348 18.1054 20.4804 18.2929 20.2929C18.4804 20.1054 18.7348 20 19 20H27C27.2652 20 27.5196 20.1054 27.7071 20.2929C27.8946 20.4804 28 20.7348 28 21C28 21.2652 27.8946 21.5196 27.7071 21.7071C27.5196 21.8946 27.2652 22 27 22H19C18.7348 22 18.4804 21.8946 18.2929 21.7071C18.1054 21.5196 18 21.2652 18 21ZM19 26C18.7348 26 18.4804 25.8946 18.2929 25.7071C18.1054 25.5196 18 25.2652 18 25C18 24.7348 18.1054 24.4804 18.2929 24.2929C18.4804 24.1054 18.7348 24 19 24H23C23.2652 24 23.5196 24.1054 23.7071 24.2929C23.8946 24.4804 24 24.7348 24 25C24 25.2652 23.8946 25.5196 23.7071 25.7071C23.5196 25.8946 23.2652 26 23 26H19Z" fill="black"/>
</svg>
