<svg width="32" height="32" viewBox="0 0 32 32" fill="none" xmlns="http://www.w3.org/2000/svg">
<path d="M8.60699 25.3333L2.66699 30V5.33333C2.66699 4.97971 2.80747 4.64057 3.05752 4.39052C3.30756 4.14048 3.6467 4 4.00033 4H28.0003C28.3539 4 28.6931 4.14048 28.9431 4.39052C29.1932 4.64057 29.3337 4.97971 29.3337 5.33333V24C29.3337 24.3536 29.1932 24.6928 28.9431 24.9428C28.6931 25.1929 28.3539 25.3333 28.0003 25.3333H8.60699ZM7.68433 22.6667H26.667V6.66667H5.33366V24.5133L7.68433 22.6667ZM9.33366 13.3333H12.0003C12.0003 14.3942 12.4218 15.4116 13.1719 16.1618C13.922 16.9119 14.9395 17.3333 16.0003 17.3333C17.0612 17.3333 18.0786 16.9119 18.8288 16.1618C19.5789 15.4116 20.0003 14.3942 20.0003 13.3333H22.667C22.667 15.1014 21.9646 16.7971 20.7144 18.0474C19.4641 19.2976 17.7684 20 16.0003 20C14.2322 20 12.5365 19.2976 11.2863 18.0474C10.036 16.7971 9.33366 15.1014 9.33366 13.3333Z" fill="black"/>
</svg>
