<svg width="32" height="32" viewBox="0 0 32 32" fill="none" xmlns="http://www.w3.org/2000/svg">
<path d="M3 4.625H29V24.125H16.6727L12.75 28.0477L8.82725 24.125H3V4.625ZM12.75 14.375C12.75 13.944 12.5788 13.5307 12.274 13.226C11.9693 12.9212 11.556 12.75 11.125 12.75C10.694 12.75 10.2807 12.9212 9.97595 13.226C9.67121 13.5307 9.5 13.944 9.5 14.375C9.5 14.806 9.67121 15.2193 9.97595 15.524C10.2807 15.8288 10.694 16 11.125 16C11.556 16 11.9693 15.8288 12.274 15.524C12.5788 15.2193 12.75 14.806 12.75 14.375ZM17.625 14.375C17.625 13.944 17.4538 13.5307 17.149 13.226C16.8443 12.9212 16.431 12.75 16 12.75C15.569 12.75 15.1557 12.9212 14.851 13.226C14.5462 13.5307 14.375 13.944 14.375 14.375C14.375 14.806 14.5462 15.2193 14.851 15.524C15.1557 15.8288 15.569 16 16 16C16.431 16 16.8443 15.8288 17.149 15.524C17.4538 15.2193 17.625 14.806 17.625 14.375ZM22.5 14.375C22.5 13.944 22.3288 13.5307 22.024 13.226C21.7193 12.9212 21.306 12.75 20.875 12.75C20.444 12.75 20.0307 12.9212 19.726 13.226C19.4212 13.5307 19.25 13.944 19.25 14.375C19.25 14.806 19.4212 15.2193 19.726 15.524C20.0307 15.8288 20.444 16 20.875 16C21.306 16 21.7193 15.8288 22.024 15.524C22.3288 15.2193 22.5 14.806 22.5 14.375Z" fill="black"/>
</svg>
