<svg width="32" height="32" viewBox="0 0 32 32" fill="none" xmlns="http://www.w3.org/2000/svg">
<path d="M13.2266 9.8775C13.4661 10.4278 13.6986 10.9812 13.924 11.5375L13.928 11.5482L14.2466 12.3148L14.276 12.3842L14.2773 12.3855C14.4106 12.6522 14.5466 13.0828 14.3066 13.5748L13.2266 9.8775ZM13.2266 9.8775C13.0666 9.52016 12.8573 9.2375 12.5626 9.06683ZM13.2266 9.8775L12.5626 9.06683ZM17.672 18.6202C17.5907 18.5812 17.5085 18.5443 17.4253 18.5095L17.4133 18.5042C16.5475 18.1485 15.7495 17.646 15.0546 17.0188C14.192 16.2535 13.5746 15.3122 13.3346 14.9108C13.4493 14.7935 13.5746 14.6428 13.6746 14.5202L13.688 14.5068C13.7529 14.4268 13.8129 14.3548 13.868 14.2908C14.0786 14.0508 14.1746 13.8508 14.2653 13.6602L14.2706 13.6495L14.3066 13.5748L13.272 14.8148L13.2346 14.8362L12.6986 15.1468M17.672 18.6202L17.6586 18.6442L17.6786 18.6228M17.672 18.6202L17.6586 18.6455L17.6146 18.6962C17.5986 18.7162 17.5986 18.7108 17.6173 18.6988L17.62 18.6975L17.6386 18.6868L17.628 18.7082L17.3746 19.2175M17.672 18.6202L17.6786 18.6228ZM17.6786 18.6228C17.7093 18.6393 17.7414 18.6527 17.7746 18.6628C17.7746 18.6628 17.756 18.6588 17.724 18.6628C17.6944 18.666 17.6656 18.6741 17.6386 18.6868L17.628 18.7082L17.3746 19.2175M17.6786 18.6228C17.9306 18.3295 18.4666 17.6988 18.6546 17.4228ZM17.3746 19.2175C17.7186 19.3882 17.9213 19.3615 18.1213 19.1322C18.3186 18.9015 18.9773 18.1335 19.2093 17.7922M17.3746 19.2175C17.3186 19.1899 17.2435 19.1562 17.1493 19.1162C16.2182 18.732 15.36 18.1908 14.612 17.5162C13.5893 16.6095 12.8973 15.4882 12.6986 15.1468M18.6546 17.4215L18.652 17.4268L19.2093 17.7922M18.6546 17.4215L18.6573 17.4188L19.2093 17.7922M18.6546 17.4215C18.8386 17.1442 19.1053 16.9175 19.4813 16.8722C19.784 16.8375 20.0626 16.9402 20.208 16.9948L20.2133 16.9975C20.408 17.0695 20.9466 17.3242 21.4333 17.5588C21.94 17.8028 22.4506 18.0535 22.6253 18.1402L22.8066 18.2282L22.5186 18.8295M19.2093 17.7922C19.4333 17.4508 19.6626 17.5042 19.98 17.6215C20.2973 17.7402 21.9853 18.5682 22.328 18.7375L22.5186 18.8308M12.6986 15.1468L13.2346 14.8362L13.2733 14.8135L13.3653 13.8535L13.1733 14.0802C13.06 14.2188 12.9466 14.3548 12.8506 14.4508C12.6786 14.6215 12.5013 14.8055 12.6986 15.1468ZM22.5186 18.8295L22.8066 18.2295L22.8226 18.2362C22.9293 18.2868 23.056 18.3482 23.164 18.4148C23.3256 18.5082 23.462 18.6395 23.5613 18.7975M22.5186 18.8295C22.7573 18.9442 22.9186 19.0228 22.988 19.1388ZM23.5613 18.7975L22.7906 20.7668C23.0733 19.9655 23.0733 19.2828 22.988 19.1388M23.5613 18.7975C23.668 18.9762 23.6893 19.1828 23.6973 19.2882C23.7089 19.4304 23.7071 19.5886 23.692 19.7628C23.6521 20.1815 23.5603 20.5935 23.4186 20.9895L23.4173 20.9935C23.1946 21.6068 22.6146 22.1002 22.1186 22.4202C21.616 22.7428 21.0013 23.0135 20.532 23.0575M23.5613 18.7975L22.988 19.1375ZM22.988 19.1375L20.5306 23.0575ZM20.5306 23.0575L20.368 23.0762C20.048 23.1162 19.648 23.1615 18.9733 23.0495C18.324 22.9402 17.4346 22.6855 16.1013 22.1615C12.6746 20.8135 10.4466 17.5188 10.0013 16.8615L9.99331 16.8495L9.95331 16.7895L9.94131 16.7735V16.7708L9.93465 16.7642C9.61954 16.3418 9.34077 15.8936 9.10131 15.4242C8.75465 14.7402 8.40398 13.8148 8.40398 12.8362C8.40398 10.9895 9.33331 10.0028 9.72398 9.58816L9.78265 9.52683L20.5306 23.0575ZM12.5626 9.06683C12.2826 8.90416 12.0053 8.8975 11.88 8.8935ZM12.5626 9.06683L11.88 8.8935ZM10.0213 26.9095C9.8728 26.8292 9.69935 26.8082 9.53598 26.8508L3.61598 28.3975L5.19598 22.6642C5.21947 22.5787 5.22567 22.4894 5.21422 22.4014C5.20278 22.3135 5.17391 22.2288 5.12931 22.1522C4.02691 20.2462 3.44609 18.0834 3.44531 15.8815C3.44531 8.96683 9.10665 3.3335 16.056 3.3335C19.4346 3.3335 22.5973 4.64283 24.9786 7.0135C26.1512 8.17427 27.0811 9.5567 27.7143 11.0803C28.3474 12.6039 28.6712 14.2382 28.6666 15.8882C28.6666 22.8042 23.0053 28.4375 16.056 28.4375H16.0493C13.9447 28.4368 11.8734 27.9116 10.0226 26.9095H10.0213Z" fill="black"/>
<path d="M13.2266 9.8775C13.4661 10.4278 13.6986 10.9812 13.924 11.5375L13.928 11.5482L14.2466 12.3148L14.276 12.3842L14.2773 12.3855C14.4106 12.6522 14.5466 13.0828 14.3066 13.5748M13.2266 9.8775L14.3066 13.5748M13.2266 9.8775C13.0666 9.52016 12.8573 9.2375 12.5626 9.06683M13.2266 9.8775L12.5626 9.06683M14.3066 13.5748L14.2706 13.6495L14.2653 13.6602C14.1746 13.8508 14.0786 14.0508 13.868 14.2908C13.8129 14.3548 13.7529 14.4268 13.688 14.5068L13.6746 14.5202C13.5746 14.6428 13.4493 14.7935 13.3346 14.9108C13.5746 15.3122 14.192 16.2535 15.0546 17.0188C15.7495 17.646 16.5475 18.1485 17.4133 18.5042L17.4253 18.5095C17.5085 18.5443 17.5907 18.5812 17.672 18.6202M14.3066 13.5748L13.272 14.8148L13.2346 14.8362M12.5626 9.06683C12.2826 8.90416 12.0053 8.8975 11.88 8.8935M12.5626 9.06683L11.88 8.8935M17.672 18.6202L17.6586 18.6442L17.6786 18.6228M17.672 18.6202L17.6586 18.6455L17.6146 18.6962C17.5986 18.7162 17.5986 18.7108 17.6173 18.6988L17.62 18.6975L17.6386 18.6868M17.672 18.6202L17.6786 18.6228M13.2346 14.8362L12.6986 15.1468M13.2346 14.8362L13.2733 14.8135L13.3653 13.8535L13.1733 14.0802C13.06 14.2188 12.9466 14.3548 12.8506 14.4508C12.6786 14.6215 12.5013 14.8055 12.6986 15.1468M12.6986 15.1468C12.8973 15.4882 13.5893 16.6095 14.612 17.5162C15.36 18.1908 16.2182 18.732 17.1493 19.1162C17.2435 19.1562 17.3186 19.1899 17.3746 19.2175M17.6786 18.6228C17.7093 18.6393 17.7414 18.6527 17.7746 18.6628C17.7746 18.6628 17.756 18.6588 17.724 18.6628C17.6944 18.666 17.6656 18.6741 17.6386 18.6868M17.6786 18.6228C17.9306 18.3295 18.4666 17.6988 18.6546 17.4228M17.6386 18.6868L17.628 18.7082L17.3746 19.2175M17.3746 19.2175C17.7186 19.3882 17.9213 19.3615 18.1213 19.1322C18.3186 18.9015 18.9773 18.1335 19.2093 17.7922M19.2093 17.7922L18.652 17.4268L18.6546 17.4215M19.2093 17.7922L18.6573 17.4188L18.6546 17.4215M19.2093 17.7922C19.4333 17.4508 19.6626 17.5042 19.98 17.6215C20.2973 17.7402 21.9853 18.5682 22.328 18.7375L22.5186 18.8308M18.6546 17.4215C18.8386 17.1442 19.1053 16.9175 19.4813 16.8722C19.784 16.8375 20.0626 16.9402 20.208 16.9948L20.2133 16.9975C20.408 17.0695 20.9466 17.3242 21.4333 17.5588C21.94 17.8028 22.4506 18.0535 22.6253 18.1402L22.8066 18.2282L22.5186 18.8295M22.5186 18.8295L22.8066 18.2295L22.8226 18.2362C22.9293 18.2868 23.056 18.3482 23.164 18.4148C23.3256 18.5082 23.462 18.6395 23.5613 18.7975M22.5186 18.8295C22.7573 18.9442 22.9186 19.0228 22.988 19.1388C23.0733 19.2828 23.0733 19.9655 22.7906 20.7668L23.5613 18.7975M23.5613 18.7975C23.668 18.9762 23.6893 19.1828 23.6973 19.2882C23.7089 19.4304 23.7071 19.5886 23.692 19.7628C23.6521 20.1815 23.5603 20.5935 23.4186 20.9895L23.4173 20.9935C23.1946 21.6068 22.6146 22.1002 22.1186 22.4202C21.616 22.7428 21.0013 23.0135 20.532 23.0575M23.5613 18.7975L22.988 19.1375L20.5306 23.0575M20.5306 23.0575L20.368 23.0762M20.5306 23.0575L9.78265 9.52683L9.72398 9.58816C9.33331 10.0028 8.40398 10.9895 8.40398 12.8362C8.40398 13.8148 8.75465 14.7402 9.10131 15.4242C9.34077 15.8936 9.61954 16.3418 9.93465 16.7642L9.94131 16.7708V16.7735L9.95331 16.7895L9.99331 16.8495M20.368 23.0762L20.288 22.4148M20.368 23.0762C20.048 23.1162 19.648 23.1615 18.9733 23.0495C18.324 22.9402 17.4346 22.6855 16.1013 22.1615C12.6746 20.8135 10.4466 17.5188 10.0013 16.8615L9.99331 16.8495M9.99331 16.8495L10.5466 16.4762M11.88 8.8935H11.8666M10.0213 26.9095C9.8728 26.8292 9.69935 26.8082 9.53598 26.8508L3.61598 28.3975L5.19598 22.6642C5.21947 22.5787 5.22567 22.4894 5.21422 22.4014C5.20278 22.3135 5.17391 22.2288 5.12931 22.1522C4.02691 20.2462 3.44609 18.0834 3.44531 15.8815C3.44531 8.96683 9.10665 3.3335 16.056 3.3335C19.4346 3.3335 22.5973 4.64283 24.9786 7.0135C26.1512 8.17427 27.0811 9.5567 27.7143 11.0803C28.3474 12.6039 28.6712 14.2382 28.6666 15.8882C28.6666 22.8042 23.0053 28.4375 16.056 28.4375H16.0493C13.9447 28.4368 11.8734 27.9116 10.0226 26.9095H10.0213Z" stroke="black" stroke-linejoin="round"/>
</svg>
