<svg width="32" height="32" viewBox="0 0 32 32" fill="none" xmlns="http://www.w3.org/2000/svg">
<path d="M28.0003 4C28.3539 4 28.6931 4.14048 28.9431 4.39052C29.1932 4.64057 29.3337 4.97971 29.3337 5.33333V24C29.3337 24.3536 29.1932 24.6928 28.9431 24.9428C28.6931 25.1929 28.3539 25.3333 28.0003 25.3333H8.60699L2.66699 30V5.33333C2.66699 4.97971 2.80747 4.64057 3.05752 4.39052C3.30756 4.14048 3.6467 4 4.00033 4H28.0003ZM14.0203 9.88267C11.6377 10.916 10.0003 13.0067 10.0003 15.34C10.0003 16.6667 10.3697 17.4853 11.0563 18.2147C11.4883 18.6733 12.1723 19 12.8883 19C13.1947 19 13.4982 18.9396 13.7813 18.8224C14.0643 18.7051 14.3216 18.5333 14.5382 18.3166C14.7549 18.0999 14.9268 17.8427 15.044 17.5596C15.1613 17.2765 15.2217 16.9731 15.2217 16.6667C15.2187 16.08 14.9961 15.5158 14.5978 15.0852C14.1994 14.6545 13.6543 14.3887 13.0697 14.34C12.857 14.3188 12.6426 14.3233 12.431 14.3533V14.2307C12.439 13.644 12.5643 11.9107 14.6163 10.8L14.0203 9.88267ZM20.687 9.88267C18.3043 10.916 16.667 13.0067 16.667 15.34C16.667 16.6667 17.0363 17.4853 17.723 18.2147C18.155 18.6733 18.839 19 19.555 19C20.1738 19 20.7673 18.7542 21.2049 18.3166C21.6425 17.879 21.8883 17.2855 21.8883 16.6667C21.8853 16.08 21.6628 15.5158 21.2644 15.0852C20.8661 14.6545 20.3209 14.3887 19.7363 14.34C19.5237 14.3188 19.3092 14.3233 19.0977 14.3533V14.2307C19.1057 13.644 19.231 11.9107 21.283 10.8L20.687 9.88267Z" fill="black"/>
</svg>
