<svg width="32" height="32" viewBox="0 0 32 32" fill="none" xmlns="http://www.w3.org/2000/svg">
<path fill-rule="evenodd" clip-rule="evenodd" d="M16 4C12.8174 4 9.76516 5.26428 7.51472 7.51472C5.26428 9.76516 4 12.8174 4 16C4 19.1826 5.26428 22.2348 7.51472 24.4853C9.76516 26.7357 12.8174 28 16 28H22C23.864 28 24.796 28 25.5307 27.696C26.0161 27.495 26.4572 27.2003 26.8287 26.8287C27.2003 26.4572 27.495 26.0161 27.696 25.5307C28 24.796 28 23.864 28 22V16C28 12.8174 26.7357 9.76516 24.4853 7.51472C22.2348 5.26428 19.1826 4 16 4ZM10.6667 14.6667C10.6667 14.313 10.8071 13.9739 11.0572 13.7239C11.3072 13.4738 11.6464 13.3333 12 13.3333H20C20.3536 13.3333 20.6928 13.4738 20.9428 13.7239C21.1929 13.9739 21.3333 14.313 21.3333 14.6667C21.3333 15.0203 21.1929 15.3594 20.9428 15.6095C20.6928 15.8595 20.3536 16 20 16H12C11.6464 16 11.3072 15.8595 11.0572 15.6095C10.8071 15.3594 10.6667 15.0203 10.6667 14.6667ZM14.6667 20C14.6667 19.6464 14.8071 19.3072 15.0572 19.0572C15.3072 18.8071 15.6464 18.6667 16 18.6667H20C20.3536 18.6667 20.6928 18.8071 20.9428 19.0572C21.1929 19.3072 21.3333 19.6464 21.3333 20C21.3333 20.3536 21.1929 20.6928 20.9428 20.9428C20.6928 21.1929 20.3536 21.3333 20 21.3333H16C15.6464 21.3333 15.3072 21.1929 15.0572 20.9428C14.8071 20.6928 14.6667 20.3536 14.6667 20Z" fill="black"/>
</svg>
