<svg width="32" height="32" viewBox="0 0 32 32" fill="none" xmlns="http://www.w3.org/2000/svg">
<path d="M2.66699 29.3332L9.72166 27.7652C11.6532 28.7976 13.8102 29.3362 16.0003 29.3332C23.3643 29.3332 29.3337 23.3638 29.3337 15.9998C29.3337 8.63584 23.3643 2.6665 16.0003 2.6665C8.63633 2.6665 2.66699 8.63584 2.66699 15.9998C2.66699 18.2705 3.23366 20.4078 4.23499 22.2785L2.66699 29.3332ZM10.979 25.4132L10.1083 24.9478L6.17899 25.8212L7.05233 21.8918L6.58566 21.0212C5.7604 19.4763 5.33028 17.7513 5.33366 15.9998C5.33366 13.8902 5.95925 11.8279 7.13132 10.0738C8.30338 8.31963 9.96929 6.95246 11.9184 6.14512C13.8674 5.33779 16.0122 5.12655 18.0813 5.53813C20.1504 5.9497 22.051 6.96561 23.5428 8.45737C25.0346 9.94913 26.0505 11.8497 26.462 13.9189C26.8736 15.988 26.6624 18.1327 25.855 20.0818C25.0477 22.0309 23.6805 23.6968 21.9264 24.8688C20.1723 26.0409 18.11 26.6665 16.0003 26.6665C14.2488 26.6695 12.5237 26.2389 10.979 25.4132ZM20.6003 9.33317H17.9203L17.687 11.9998H15.0097L15.243 9.33317H12.5683L12.3337 11.9998H9.33366V14.6665H12.1017L11.867 17.3332H9.33366V19.9998H11.635L11.4017 22.6665H14.079L14.3123 19.9998H16.9883L16.755 22.6665H19.4323L19.6657 19.9998H22.667V17.3332H19.899L20.1323 14.6665H22.667V11.9998H20.3657L20.6003 9.33317ZM14.779 14.6665H17.4563L17.223 17.3332H14.5457L14.779 14.6665Z" fill="black"/>
</svg>
