<svg width="32" height="32" viewBox="0 0 32 32" fill="none" xmlns="http://www.w3.org/2000/svg">
<path d="M17.176 16C18.736 16 20 17.3427 20 19C20 20.6573 18.736 22 17.176 22H13.8827C12.9947 22 12.552 22 12.276 21.7293C12 21.4587 12 21.024 12 20.1533V16M17.176 16C18.736 16 20 14.6573 20 13C20 11.3427 18.736 10 17.176 10H13.8827C12.9947 10 12.552 10 12.276 10.2707C12 10.5413 12 10.976 12 11.8467V16M17.176 16H12" stroke="black" stroke-width="2" stroke-linecap="round" stroke-linejoin="round"/>
<path d="M25.3991 6.54658C24.1765 5.31205 22.7205 4.3332 21.1158 3.66706C19.5111 3.00092 17.7899 2.66082 16.0524 2.66658C8.77242 2.66658 2.83909 8.59991 2.83909 15.8799C2.83909 18.2132 3.45242 20.4799 4.59909 22.4799L2.73242 29.3332L9.73242 27.4932C11.6658 28.5466 13.8391 29.1066 16.0524 29.1066C23.3324 29.1066 29.2658 23.1732 29.2658 15.8932C29.2658 12.3599 27.8924 9.03991 25.3991 6.54658ZM16.0524 26.8666C14.0791 26.8666 12.1458 26.3332 10.4524 25.3332L10.0524 25.0932L5.89242 26.1866L6.99909 22.1332L6.73242 21.7199C5.63582 19.9693 5.05365 17.9456 5.05242 15.8799C5.05242 9.82658 9.98575 4.89324 16.0391 4.89324C18.9724 4.89324 21.7324 6.03991 23.7991 8.11991C24.8226 9.13839 25.6336 10.35 26.1853 11.6843C26.7369 13.0187 27.018 14.4494 27.0124 15.8932C27.0391 21.9466 22.1058 26.8666 16.0524 26.8666Z" fill="black"/>
</svg>
