<svg width="32" height="32" viewBox="0 0 32 32" fill="none" xmlns="http://www.w3.org/2000/svg">
<path d="M3.00002 16C3.00002 8.82 8.82002 3 16 3C23.18 3 29 8.82 29 16C29 23.18 23.18 29 16 29C13.991 29.0033 12.0088 28.5386 10.2107 27.6427C9.93068 27.504 9.51335 27.4907 8.86402 27.6493C8.53602 27.7334 8.21173 27.8312 7.89202 27.9427L7.77735 27.9827C7.48402 28.0813 7.16402 28.188 6.86668 28.268C4.96402 28.7773 3.22268 27.036 3.73202 25.1347C3.81202 24.836 3.91868 24.5173 4.01735 24.2227L4.05735 24.108C4.17068 23.768 4.27468 23.448 4.35068 23.136C4.51068 22.4867 4.49735 22.0693 4.35735 21.7893C3.4614 19.9912 2.99668 18.009 3.00002 16ZM11.6667 16.3333C11.6667 16.0681 11.5613 15.8138 11.3738 15.6262C11.1863 15.4387 10.9319 15.3333 10.6667 15.3333C10.4015 15.3333 10.1471 15.4387 9.95958 15.6262C9.77204 15.8138 9.66668 16.0681 9.66668 16.3333V17C9.66668 17.2652 9.77204 17.5196 9.95958 17.7071C10.1471 17.8946 10.4015 18 10.6667 18C10.9319 18 11.1863 17.8946 11.3738 17.7071C11.5613 17.5196 11.6667 17.2652 11.6667 17V16.3333ZM17 16.3333C17 16.0681 16.8947 15.8138 16.7071 15.6262C16.5196 15.4387 16.2652 15.3333 16 15.3333C15.7348 15.3333 15.4804 15.4387 15.2929 15.6262C15.1054 15.8138 15 16.0681 15 16.3333V17C15 17.2652 15.1054 17.5196 15.2929 17.7071C15.4804 17.8946 15.7348 18 16 18C16.2652 18 16.5196 17.8946 16.7071 17.7071C16.8947 17.5196 17 17.2652 17 17V16.3333ZM22.3333 16.3333C22.3333 16.0681 22.228 15.8138 22.0405 15.6262C21.8529 15.4387 21.5986 15.3333 21.3334 15.3333C21.0681 15.3333 20.8138 15.4387 20.6262 15.6262C20.4387 15.8138 20.3334 16.0681 20.3334 16.3333V17C20.3334 17.2652 20.4387 17.5196 20.6262 17.7071C20.8138 17.8946 21.0681 18 21.3334 18C21.5986 18 21.8529 17.8946 22.0405 17.7071C22.228 17.5196 22.3333 17.2652 22.3333 17V16.3333Z" fill="black"/>
</svg>
