<svg width="32" height="32" viewBox="0 0 32 32" fill="none" xmlns="http://www.w3.org/2000/svg">
<path d="M11 6C10.2044 6 9.44129 6.31607 8.87868 6.87868C8.31607 7.44129 8 8.20435 8 9C8 9.79565 8.31607 10.5587 8.87868 11.1213C9.44129 11.6839 10.2044 12 11 12C11.7956 12 12.5587 11.6839 13.1213 11.1213C13.6839 10.5587 14 9.79565 14 9C14 8.20435 13.6839 7.44129 13.1213 6.87868C12.5587 6.31607 11.7956 6 11 6ZM6 9C6 7.67392 6.52678 6.40215 7.46447 5.46447C8.40215 4.52678 9.67392 4 11 4C12.3261 4 13.5979 4.52678 14.5355 5.46447C15.4732 6.40215 16 7.67392 16 9C16 10.3261 15.4732 11.5979 14.5355 12.5355C13.5979 13.4732 12.3261 14 11 14C9.67392 14 8.40215 13.4732 7.46447 12.5355C6.52678 11.5979 6 10.3261 6 9ZM23 8C22.4696 8 21.9609 8.21071 21.5858 8.58579C21.2107 8.96086 21 9.46957 21 10C21 10.5304 21.2107 11.0391 21.5858 11.4142C21.9609 11.7893 22.4696 12 23 12C21.9312 11.9992 20.8681 12.1542 19.844 12.46C19.3835 11.8691 19.0982 11.1608 19.0205 10.4157C18.9429 9.67056 19.0761 8.91863 19.4049 8.2455C19.7337 7.57237 20.2449 7.00511 20.8803 6.60831C21.5158 6.21152 22.2499 6.00114 22.999 6.00114C23.7481 6.00114 24.4822 6.21152 25.1177 6.60831C25.7531 7.00511 26.2643 7.57237 26.5931 8.2455C26.9219 8.91863 27.0551 9.67056 26.9775 10.4157C26.8998 11.1608 26.6145 11.8691 26.154 12.46C25.1306 12.1544 24.0681 11.9994 23 12C23.5304 12 24.0391 11.7893 24.4142 11.4142C24.7893 11.0391 25 10.5304 25 10C25 9.46957 24.7893 8.96086 24.4142 8.58579C24.0391 8.21071 23.5304 8 23 8ZM14.514 16H6C5.20435 16 4.44129 16.3161 3.87868 16.8787C3.31607 17.4413 3 18.2044 3 19V19.224C3.00038 19.3157 3.00706 19.4072 3.02 19.498C3.13371 20.4677 3.49457 21.3918 4.068 22.182C5.164 23.692 7.244 25 11 25C11.4093 25 11.8007 24.9847 12.174 24.954C12.0579 24.3091 11.9997 23.6552 12 23V22.962C11.6673 22.9886 11.3337 23.0012 11 23C7.756 23 6.336 21.902 5.684 21.006C5.31743 20.5002 5.08487 19.9099 5.008 19.29L5 19.194V19C5 18.7348 5.10536 18.4804 5.29289 18.2929C5.48043 18.1054 5.73478 18 6 18H13.2C13.568 17.2827 14.006 16.616 14.514 16ZM23 32C24.9745 31.9998 26.8941 31.3503 28.4631 30.1516C30.0321 28.9529 31.1633 27.2715 31.6825 25.3665C32.2017 23.4615 32.08 21.4386 31.3362 19.6096C30.5923 17.7806 29.2677 16.2469 27.5663 15.2449C25.865 14.243 23.8813 13.8283 21.921 14.0648C19.9608 14.3013 18.1327 15.1759 16.7185 16.5539C15.3043 17.9318 14.3824 19.7365 14.095 21.6899C13.8076 23.6434 14.1706 25.6372 15.128 27.364L14.038 30.942C13.9958 31.0836 13.9927 31.2341 14.0289 31.3774C14.0652 31.5206 14.1395 31.6515 14.244 31.756C14.3485 31.8605 14.4794 31.9348 14.6226 31.9711C14.7659 32.0073 14.9164 32.0042 15.058 31.962L18.638 30.874C19.973 31.6131 21.4741 32.0005 23 32ZM18 21C18 20.7348 18.1054 20.4804 18.2929 20.2929C18.4804 20.1054 18.7348 20 19 20H27C27.2652 20 27.5196 20.1054 27.7071 20.2929C27.8946 20.4804 28 20.7348 28 21C28 21.2652 27.8946 21.5196 27.7071 21.7071C27.5196 21.8946 27.2652 22 27 22H19C18.7348 22 18.4804 21.8946 18.2929 21.7071C18.1054 21.5196 18 21.2652 18 21ZM19 26C18.7348 26 18.4804 25.8946 18.2929 25.7071C18.1054 25.5196 18 25.2652 18 25C18 24.7348 18.1054 24.4804 18.2929 24.2929C18.4804 24.1054 18.7348 24 19 24H23C23.2652 24 23.5196 24.1054 23.7071 24.2929C23.8946 24.4804 24 24.7348 24 25C24 25.2652 23.8946 25.5196 23.7071 25.7071C23.5196 25.8946 23.2652 26 23 26H19Z" fill="black"/>
</svg>
