<svg width="32" height="32" viewBox="0 0 32 32" fill="none" xmlns="http://www.w3.org/2000/svg">
<path d="M15.206 26.534L14.776 27.948C9.238 27.458 6 23.68 6 20V19C6 18.2044 6.31607 17.4413 6.87868 16.8787C7.44129 16.3161 8.20435 16 9 16H18.08C17.3 16.55 16.614 17.226 16.056 18H9C8.73478 18 8.48043 18.1054 8.29289 18.2929C8.10536 18.4804 8 18.7348 8 19V20C8 22.676 10.482 25.57 14.968 25.956C15.04 26.152 15.1193 26.3433 15.206 26.534ZM16 3C17.4587 3 18.8576 3.57946 19.8891 4.61091C20.9205 5.64236 21.5 7.04131 21.5 8.5C21.5 9.95869 20.9205 11.3576 19.8891 12.3891C18.8576 13.4205 17.4587 14 16 14C14.5413 14 13.1424 13.4205 12.1109 12.3891C11.0795 11.3576 10.5 9.95869 10.5 8.5C10.5 7.04131 11.0795 5.64236 12.1109 4.61091C13.1424 3.57946 14.5413 3 16 3ZM16 5C15.0717 5 14.1815 5.36875 13.5251 6.02513C12.8687 6.6815 12.5 7.57174 12.5 8.5C12.5 9.42826 12.8687 10.3185 13.5251 10.9749C14.1815 11.6313 15.0717 12 16 12C16.9283 12 17.8185 11.6313 18.4749 10.9749C19.1313 10.3185 19.5 9.42826 19.5 8.5C19.5 7.57174 19.1313 6.6815 18.4749 6.02513C17.8185 5.36875 16.9283 5 16 5ZM30 23C30.0003 24.2186 29.6825 25.4162 29.078 26.4742C28.4735 27.5323 27.6033 28.4143 26.5534 29.0329C25.5035 29.6515 24.3103 29.9853 23.0918 30.0012C21.8733 30.0172 20.6718 29.7148 19.606 29.124L16.822 29.97C16.7117 30.0037 16.5942 30.0067 16.4823 29.9788C16.3704 29.9509 16.2681 29.893 16.1866 29.8114C16.105 29.7299 16.0471 29.6276 16.0192 29.5157C15.9913 29.4038 15.9943 29.2863 16.028 29.176L16.876 26.394C16.3585 25.4594 16.0619 24.4188 16.0087 23.3519C15.9555 22.2849 16.1472 21.2199 16.5691 20.2385C16.9911 19.2571 17.632 18.3853 18.4429 17.6898C19.2538 16.9944 20.2131 16.4938 21.2474 16.2263C22.2816 15.9588 23.3634 15.9316 24.4098 16.1468C25.4561 16.3619 26.4394 16.8137 27.2842 17.4675C28.129 18.1213 28.813 18.9598 29.2838 19.9188C29.7545 20.8777 29.9995 21.9317 30 23ZM21 20C20.7348 20 20.4804 20.1054 20.2929 20.2929C20.1054 20.4804 20 20.7348 20 21C20 21.2652 20.1054 21.5196 20.2929 21.7071C20.4804 21.8946 20.7348 22 21 22H25C25.2652 22 25.5196 21.8946 25.7071 21.7071C25.8946 21.5196 26 21.2652 26 21C26 20.7348 25.8946 20.4804 25.7071 20.2929C25.5196 20.1054 25.2652 20 25 20H21ZM20 25C20 25.2652 20.1054 25.5196 20.2929 25.7071C20.4804 25.8946 20.7348 26 21 26H23C23.2652 26 23.5196 25.8946 23.7071 25.7071C23.8946 25.5196 24 25.2652 24 25C24 24.7348 23.8946 24.4804 23.7071 24.2929C23.5196 24.1054 23.2652 24 23 24H21C20.7348 24 20.4804 24.1054 20.2929 24.2929C20.1054 24.4804 20 24.7348 20 25Z" fill="black"/>
</svg>
