<svg width="32" height="32" viewBox="0 0 32 32" fill="none" xmlns="http://www.w3.org/2000/svg">
<path d="M16.0003 29.3332C23.3643 29.3332 29.3337 23.3638 29.3337 15.9998C29.3337 14.7918 29.1737 13.6212 28.8723 12.5092C28.7577 12.0878 28.2657 11.9212 27.871 12.1052C26.7547 12.6269 25.5049 12.7922 24.2913 12.5788C23.0777 12.3653 21.9593 11.7834 21.0881 10.9121C20.2168 10.0408 19.6349 8.92242 19.4214 7.70886C19.208 6.49531 19.3733 5.24547 19.895 4.12917C20.079 3.73451 19.9123 3.24251 19.491 3.12917C18.353 2.82131 17.1792 2.66573 16.0003 2.66651C8.63633 2.66651 2.66699 8.63584 2.66699 15.9998C2.66699 18.1332 3.16833 20.1492 4.05766 21.9372C4.29499 22.4118 4.37366 22.9545 4.23633 23.4678L3.44299 26.4358C3.36442 26.7296 3.36449 27.0388 3.4432 27.3325C3.52191 27.6262 3.67648 27.894 3.89141 28.109C4.10634 28.3241 4.37406 28.4788 4.66769 28.5577C4.96133 28.6366 5.27055 28.6369 5.56433 28.5585L8.53233 27.7638C9.0475 27.6337 9.59251 27.6968 10.0643 27.9412C11.9083 28.8593 13.9405 29.3358 16.0003 29.3332Z" fill="black"/>
<path d="M25.333 10.6665C27.5421 10.6665 29.333 8.87564 29.333 6.6665C29.333 4.45736 27.5421 2.6665 25.333 2.6665C23.1239 2.6665 21.333 4.45736 21.333 6.6665C21.333 8.87564 23.1239 10.6665 25.333 10.6665Z" fill="black"/>
</svg>
