<svg width="32" height="32" viewBox="0 0 32 32" fill="none" xmlns="http://www.w3.org/2000/svg">
<path d="M28.0003 4C28.3539 4 28.6931 4.14048 28.9431 4.39052C29.1932 4.64057 29.3337 4.97971 29.3337 5.33333V24C29.3337 24.3536 29.1932 24.6928 28.9431 24.9428C28.6931 25.1929 28.3539 25.3333 28.0003 25.3333H8.60699L2.66699 30V5.33333C2.66699 4.97971 2.80747 4.64057 3.05752 4.39052C3.30756 4.14048 3.6467 4 4.00033 4H28.0003ZM26.667 6.66667H5.33366V24.5133L7.68433 22.6667H26.667V6.66667ZM14.0203 9.88267L14.6163 10.8C12.3923 12.004 12.431 13.936 12.431 14.3533C12.6377 14.324 12.855 14.32 13.071 14.34C13.6554 14.389 14.2002 14.655 14.5983 15.0856C14.9963 15.5162 15.2187 16.0803 15.2217 16.6667C15.2217 17.2855 14.9758 17.879 14.5382 18.3166C14.1007 18.7542 13.5072 19 12.8883 19C12.1723 19 11.4883 18.6733 11.0563 18.2133C10.3697 17.4853 10.0003 16.6667 10.0003 15.34C10.0003 13.0067 11.6377 10.916 14.0203 9.88267ZM20.687 9.88267L21.283 10.8C19.059 12.004 19.0977 13.936 19.0977 14.3533C19.3043 14.324 19.5217 14.32 19.7377 14.34C20.322 14.389 20.8669 14.655 21.2649 15.0856C21.663 15.5162 21.8854 16.0803 21.8883 16.6667C21.8883 17.2855 21.6425 17.879 21.2049 18.3166C20.7673 18.7542 20.1738 19 19.555 19C18.839 19 18.155 18.6733 17.723 18.2133C17.0363 17.4853 16.667 16.6667 16.667 15.34C16.667 13.0067 18.3043 10.916 20.687 9.88267Z" fill="black"/>
</svg>
