<svg width="32" height="32" viewBox="0 0 32 32" fill="none" xmlns="http://www.w3.org/2000/svg">
<path d="M16.0003 2.6665C23.3643 2.6665 29.3337 8.63584 29.3337 15.9998C29.3337 23.3638 23.3643 29.3332 16.0003 29.3332C13.5712 29.3369 11.1877 28.6737 9.10967 27.4158L5.067 28.6052C4.83489 28.6735 4.58867 28.678 4.35423 28.6182C4.11978 28.5584 3.90576 28.4366 3.73468 28.2655C3.5636 28.0944 3.44177 27.8804 3.382 27.6459C3.32222 27.4115 3.32672 27.1653 3.395 26.9332L4.58434 22.8905C3.32707 20.8122 2.66391 18.4288 2.667 15.9998C2.667 8.63584 8.63634 2.6665 16.0003 2.6665ZM16.0003 5.33317C14.0905 5.33282 12.2156 5.84525 10.5714 6.81692C8.92728 7.7886 7.57414 9.18389 6.65335 10.8571C5.73256 12.5303 5.27789 14.42 5.33681 16.3289C5.39574 18.2379 5.9661 20.0959 6.98834 21.7092C7.291 22.1852 7.395 22.7852 7.22434 23.3625L6.63634 25.3638L8.63767 24.7758C9.215 24.6052 9.815 24.7092 10.291 25.0118C11.6888 25.8969 13.2733 26.4447 14.9192 26.6119C16.5651 26.7791 18.2274 26.5612 19.7746 25.9753C21.3218 25.3894 22.7115 24.4517 23.8339 23.2362C24.9563 22.0207 25.7805 20.5609 26.2415 18.972C26.7025 17.3831 26.7876 15.7087 26.49 14.0813C26.1924 12.4539 25.5204 10.918 24.527 9.59501C23.5336 8.27204 22.2461 7.19828 20.7662 6.45861C19.2864 5.71894 17.6547 5.33364 16.0003 5.33317ZM11.3337 13.9998C11.8641 13.9998 12.3728 14.2105 12.7479 14.5856C13.123 14.9607 13.3337 15.4694 13.3337 15.9998C13.3337 16.5303 13.123 17.039 12.7479 17.4141C12.3728 17.7891 11.8641 17.9998 11.3337 17.9998C10.8032 17.9998 10.2945 17.7891 9.91946 17.4141C9.54438 17.039 9.33367 16.5303 9.33367 15.9998C9.33367 15.4694 9.54438 14.9607 9.91946 14.5856C10.2945 14.2105 10.8032 13.9998 11.3337 13.9998ZM20.667 13.9998C21.1974 13.9998 21.7061 14.2105 22.0812 14.5856C22.4563 14.9607 22.667 15.4694 22.667 15.9998C22.667 16.5303 22.4563 17.039 22.0812 17.4141C21.7061 17.7891 21.1974 17.9998 20.667 17.9998C20.1366 17.9998 19.6279 17.7891 19.2528 17.4141C18.8777 17.039 18.667 16.5303 18.667 15.9998C18.667 15.4694 18.8777 14.9607 19.2528 14.5856C19.6279 14.2105 20.1366 13.9998 20.667 13.9998Z" fill="black"/>
</svg>
