<svg width="32" height="32" viewBox="0 0 32 32" fill="none" xmlns="http://www.w3.org/2000/svg">
<path d="M22.667 4C24.4351 4 26.1308 4.70238 27.381 5.95262C28.6313 7.20286 29.3337 8.89856 29.3337 10.6667V21.3333C29.3337 23.1014 28.6313 24.7971 27.381 26.0474C26.1308 27.2976 24.4351 28 22.667 28H4.00033C3.6467 28 3.30756 27.8595 3.05752 27.6095C2.80747 27.3594 2.66699 27.0203 2.66699 26.6667V10.6667C2.66699 8.89856 3.36937 7.20286 4.61961 5.95262C5.86986 4.70238 7.56555 4 9.33366 4H22.667ZM22.667 6.66667H9.33366C8.27279 6.66667 7.25538 7.08809 6.50523 7.83824C5.75509 8.58839 5.33366 9.6058 5.33366 10.6667V25.3333H22.667C23.7279 25.3333 24.7453 24.9119 25.4954 24.1618C26.2456 23.4116 26.667 22.3942 26.667 21.3333V10.6667C26.667 9.6058 26.2456 8.58839 25.4954 7.83824C24.7453 7.08809 23.7279 6.66667 22.667 6.66667ZM12.0003 13.3333C12.3539 13.3333 12.6931 13.4738 12.9431 13.7239C13.1932 13.9739 13.3337 14.313 13.3337 14.6667V17.3333C13.3337 17.687 13.1932 18.0261 12.9431 18.2761C12.6931 18.5262 12.3539 18.6667 12.0003 18.6667C11.6467 18.6667 11.3076 18.5262 11.0575 18.2761C10.8075 18.0261 10.667 17.687 10.667 17.3333V14.6667C10.667 14.313 10.8075 13.9739 11.0575 13.7239C11.3076 13.4738 11.6467 13.3333 12.0003 13.3333ZM20.0003 13.3333C20.3269 13.3334 20.6421 13.4533 20.8862 13.6703C21.1302 13.8873 21.2861 14.1863 21.3243 14.5107L21.3337 14.6667V17.3333C21.3333 17.6732 21.2032 18 20.9699 18.2472C20.7366 18.4943 20.4177 18.643 20.0785 18.6629C19.7392 18.6828 19.4052 18.5724 19.1445 18.3543C18.8839 18.1362 18.7165 17.8268 18.6763 17.4893L18.667 17.3333V14.6667C18.667 14.313 18.8075 13.9739 19.0575 13.7239C19.3076 13.4738 19.6467 13.3333 20.0003 13.3333Z" fill="black"/>
</svg>
