<svg width="32" height="32" viewBox="0 0 32 32" fill="none" xmlns="http://www.w3.org/2000/svg">
<path d="M16.0003 2.6665C23.3643 2.6665 29.3337 8.63584 29.3337 15.9998C29.3337 23.3638 23.3643 29.3332 16.0003 29.3332H2.667L6.57234 25.4278C5.33244 24.1911 4.34915 22.7215 3.67895 21.1035C3.00874 19.4856 2.66484 17.7511 2.667 15.9998C2.667 8.63584 8.63634 2.6665 16.0003 2.6665ZM21.3337 17.3332H10.667C10.667 18.7477 11.2289 20.1042 12.2291 21.1044C13.2293 22.1046 14.5858 22.6665 16.0003 22.6665C17.4148 22.6665 18.7714 22.1046 19.7716 21.1044C20.7718 20.1042 21.3337 18.7477 21.3337 17.3332Z" fill="black"/>
</svg>
