<svg width="32" height="32" viewBox="0 0 32 32" fill="none" xmlns="http://www.w3.org/2000/svg">
<path d="M16.0003 2.6665C23.3643 2.6665 29.3337 8.63584 29.3337 15.9998C29.3337 23.3638 23.3643 29.3332 16.0003 29.3332C13.5712 29.3369 11.1877 28.6737 9.10967 27.4158L5.067 28.6052C4.83489 28.6735 4.58867 28.678 4.35423 28.6182C4.11978 28.5584 3.90576 28.4366 3.73468 28.2655C3.5636 28.0944 3.44177 27.8804 3.382 27.6459C3.32222 27.4115 3.32672 27.1653 3.395 26.9332L4.58434 22.8905C3.32707 20.8122 2.66391 18.4288 2.667 15.9998C2.667 8.63584 8.63634 2.6665 16.0003 2.6665ZM11.3337 13.9998C10.8032 13.9998 10.2945 14.2105 9.91946 14.5856C9.54438 14.9607 9.33367 15.4694 9.33367 15.9998C9.33367 16.5303 9.54438 17.039 9.91946 17.4141C10.2945 17.7891 10.8032 17.9998 11.3337 17.9998C11.8641 17.9998 12.3728 17.7891 12.7479 17.4141C13.123 17.039 13.3337 16.5303 13.3337 15.9998C13.3337 15.4694 13.123 14.9607 12.7479 14.5856C12.3728 14.2105 11.8641 13.9998 11.3337 13.9998ZM20.667 13.9998C20.1366 13.9998 19.6279 14.2105 19.2528 14.5856C18.8777 14.9607 18.667 15.4694 18.667 15.9998C18.667 16.5303 18.8777 17.039 19.2528 17.4141C19.6279 17.7891 20.1366 17.9998 20.667 17.9998C21.1974 17.9998 21.7061 17.7891 22.0812 17.4141C22.4563 17.039 22.667 16.5303 22.667 15.9998C22.667 15.4694 22.4563 14.9607 22.0812 14.5856C21.7061 14.2105 21.1974 13.9998 20.667 13.9998Z" fill="black"/>
</svg>
