<svg width="32" height="32" viewBox="0 0 32 32" fill="none" xmlns="http://www.w3.org/2000/svg">
<path d="M9.72167 27.7652L2.66701 29.3332L4.23501 22.2785C3.20259 20.3469 2.66393 18.19 2.66701 15.9998C2.66701 8.63584 8.63634 2.6665 16.0003 2.6665C23.3643 2.6665 29.3337 8.63584 29.3337 15.9998C29.3337 23.3638 23.3643 29.3332 16.0003 29.3332C13.8102 29.3362 11.6532 28.7976 9.72167 27.7652ZM10.1083 24.9478L10.979 25.4145C12.5238 26.2398 14.2489 26.6699 16.0003 26.6665C18.11 26.6665 20.1723 26.0409 21.9264 24.8688C23.6805 23.6968 25.0477 22.0309 25.8551 20.0818C26.6624 18.1327 26.8736 15.988 26.462 13.9189C26.0505 11.8497 25.0346 9.94913 23.5428 8.45737C22.0511 6.96561 20.1504 5.9497 18.0813 5.53813C16.0122 5.12655 13.8675 5.33779 11.9184 6.14512C9.9693 6.95246 8.3034 8.31963 7.13133 10.0738C5.95926 11.8279 5.33367 13.8902 5.33367 15.9998C5.33367 17.7798 5.76701 19.4892 6.58701 21.0212L7.05234 21.8918L6.17901 25.8212L10.1083 24.9478ZM9.33367 15.9998H12.0003C12.0003 17.0607 12.4218 18.0781 13.1719 18.8283C13.9221 19.5784 14.9395 19.9998 16.0003 19.9998C17.0612 19.9998 18.0786 19.5784 18.8288 18.8283C19.5789 18.0781 20.0003 17.0607 20.0003 15.9998H22.667C22.667 17.7679 21.9646 19.4636 20.7144 20.7139C19.4641 21.9641 17.7684 22.6665 16.0003 22.6665C14.2322 22.6665 12.5365 21.9641 11.2863 20.7139C10.0361 19.4636 9.33367 17.7679 9.33367 15.9998Z" fill="black"/>
</svg>
