<svg width="32" height="32" viewBox="0 0 32 32" fill="none" xmlns="http://www.w3.org/2000/svg">
<path d="M25.334 10.6665C23.1248 10.6665 21.334 8.87564 21.334 6.6665C21.334 4.45736 23.1248 2.6665 25.334 2.6665C27.5431 2.6665 29.334 4.45736 29.334 6.6665C29.334 8.87564 27.5431 10.6665 25.334 10.6665Z" stroke="black" stroke-width="1.5"/>
<path d="M18.667 2.93317C17.8048 2.75717 16.9159 2.66828 16.0003 2.6665C8.63633 2.6665 2.66699 8.63584 2.66699 15.9998C2.66699 18.1332 3.16833 20.1492 4.05766 21.9372C4.29499 22.4118 4.37366 22.9545 4.23633 23.4678L3.44299 26.4358C3.36442 26.7296 3.36449 27.0388 3.4432 27.3325C3.52191 27.6262 3.67648 27.894 3.89141 28.109C4.10634 28.3241 4.37406 28.4788 4.66769 28.5577C4.96133 28.6366 5.27055 28.6369 5.56433 28.5585L8.53233 27.7638C9.0475 27.6337 9.59251 27.6968 10.0643 27.9412C11.9083 28.8593 13.9405 29.3358 16.0003 29.3332C23.3643 29.3332 29.3337 23.3638 29.3337 15.9998C29.3319 15.0843 29.243 14.1954 29.067 13.3332" stroke="black" stroke-width="1.5" stroke-linecap="round"/>
</svg>
