<svg width="32" height="32" viewBox="0 0 32 32" fill="none" xmlns="http://www.w3.org/2000/svg">
<path d="M25.3337 8C24.2225 8 23.2781 7.61111 22.5003 6.83333C21.7225 6.05556 21.3337 5.11111 21.3337 4C21.3337 2.88889 21.7225 1.94444 22.5003 1.16667C23.2781 0.388889 24.2225 0 25.3337 0C26.4448 0 27.3892 0.388889 28.167 1.16667C28.9448 1.94444 29.3337 2.88889 29.3337 4C29.3337 5.11111 28.9448 6.05556 28.167 6.83333C27.3892 7.61111 26.4448 8 25.3337 8ZM2.66699 29.3333V5.33333C2.66699 4.6 2.92833 3.97244 3.45099 3.45067C3.97366 2.92889 4.60121 2.66756 5.33366 2.66667H18.8003C18.7114 3.11111 18.667 3.55556 18.667 4C18.667 4.44444 18.7114 4.88889 18.8003 5.33333C19.1114 6.88889 19.8781 8.16667 21.1003 9.16667C22.3225 10.1667 23.7337 10.6667 25.3337 10.6667C26.0448 10.6667 26.7448 10.5556 27.4337 10.3333C28.1225 10.1111 28.7559 9.77778 29.3337 9.33333V21.3333C29.3337 22.0667 29.0728 22.6947 28.551 23.2173C28.0292 23.74 27.4012 24.0009 26.667 24H8.00033L2.66699 29.3333Z" fill="black"/>
</svg>
