<svg width="117" height="16" viewBox="0 0 117 16" fill="none" xmlns="http://www.w3.org/2000/svg">
<path d="M6.48299 0C5.53546 0 4.62677 0.377014 3.95665 1.04794C3.28665 1.71884 2.9101 2.62868 2.9101 3.57745V4.083C2.9101 4.1047 2.92773 4.12229 2.9494 4.12229H3.95879C3.98045 4.12229 3.99808 4.1047 3.99808 4.083V3.57745C3.99808 2.91762 4.25966 2.28497 4.72568 1.81837C5.19159 1.35185 5.82398 1.08969 6.48299 1.08969C7.14199 1.08969 7.77405 1.35178 8.23996 1.81837C8.70598 2.28494 8.96767 2.91757 8.96767 3.57745V4.083C8.96767 4.1047 8.98519 4.12229 9.00697 4.12229H10.0166C10.0384 4.12229 10.0559 4.1047 10.0559 4.083V3.57745C10.0559 2.62864 9.67944 1.71881 9.00932 1.04794C8.33932 0.377025 7.43063 0 6.48299 0Z" fill="#0F62E6"/>
<path d="M2.33934 5.05446C1.95696 5.05465 1.58715 5.19616 1.30267 5.45125C1.01762 5.70672 0.836538 6.05834 0.794326 6.43814L0.00875143 12.7556L0.00911049 12.7584C-0.0142073 12.9752 0.00729191 13.1966 0.0729567 13.4022C0.139632 13.611 0.249148 13.8032 0.394657 13.966C0.540267 14.1287 0.718995 14.259 0.918829 14.3483C1.11821 14.4376 1.33444 14.4838 1.55314 14.4838H4.83042C4.89666 14.4838 4.98816 14.5217 5.03497 14.5685L6.45492 15.9885C6.4703 16.0038 6.495 16.0038 6.51038 15.9885L7.93044 14.5685C7.97726 14.5217 8.06875 14.4838 8.13488 14.4838H11.413C11.6314 14.4837 11.8474 14.4375 12.0469 14.348C12.2465 14.2585 12.4248 14.1285 12.5703 13.9656C12.7158 13.8027 12.8255 13.6103 12.8921 13.4018C12.9589 13.1927 12.981 12.9728 12.957 12.7563L12.1714 6.43747C12.1292 6.05756 11.9484 5.70616 11.6634 5.45089C11.3799 5.19697 11.012 5.05592 10.6309 5.0548L2.33934 5.05446ZM2.33934 6.14412H10.6284C10.7428 6.14434 10.8527 6.18644 10.938 6.26267C11.0233 6.33924 11.0776 6.44477 11.0902 6.55883L11.8757 12.8776C11.883 12.9423 11.8763 13.0072 11.8564 13.07C11.8365 13.1324 11.8038 13.1896 11.7599 13.2387C11.7163 13.2875 11.6627 13.3269 11.6027 13.3538C11.5426 13.3807 11.4782 13.3945 11.413 13.3945L7.70681 13.4045C7.70681 13.4045 7.68615 13.4078 7.6692 13.4155C7.65224 13.4231 7.63911 13.4353 7.63911 13.4353L6.54945 14.5449C6.51263 14.5824 6.45279 14.5824 6.41585 14.5449L5.33742 13.4481C5.33742 13.4481 5.3217 13.4269 5.29622 13.4158C5.27062 13.4048 5.23537 13.4041 5.23537 13.4041L1.55314 13.3945C1.48757 13.3945 1.42302 13.3808 1.36329 13.3541C1.30368 13.3274 1.25024 13.288 1.20646 13.239C1.16256 13.19 1.12955 13.1327 1.10968 13.0706C1.08992 13.0088 1.08308 12.9413 1.09037 12.8756L1.87556 6.55849C1.88836 6.44409 1.94281 6.33867 2.02814 6.26233C2.11323 6.18622 2.2246 6.14412 2.33934 6.14412Z" fill="#0F62E6"/>
<path d="M3.82934 9.47742C3.38892 9.47742 3.03191 9.83443 3.03191 10.2749C3.03191 10.7153 3.38892 11.0723 3.82934 11.0723C4.26976 11.0723 4.62677 10.7153 4.62677 10.2749C4.62677 9.83443 4.26976 9.47742 3.82934 9.47742Z" fill="#0F62E6"/>
<path d="M6.48265 9.47742C6.04223 9.47742 5.68522 9.83443 5.68522 10.2749C5.68522 10.7153 6.04223 11.0723 6.48265 11.0723C6.92307 11.0723 7.28008 10.7153 7.28008 10.2749C7.28008 9.83443 6.92307 9.47742 6.48265 9.47742Z" fill="#0F62E6"/>
<path d="M9.13641 9.47742C8.69599 9.47742 8.33898 9.83443 8.33898 10.2749C8.33898 10.7153 8.69599 11.0723 9.13641 11.0723C9.57683 11.0723 9.93384 10.7153 9.93384 10.2749C9.93384 9.83443 9.57683 9.47742 9.13641 9.47742Z" fill="#0F62E6"/>
<path d="M23.0744 11.576H21.8744L19.3664 6.332V12.5H17.8064V3.92H19.6784L22.4864 9.788L25.2824 3.92H27.1304V12.5H25.5464V6.416L23.0744 11.576Z" fill="#0F62E6"/>
<path d="M30.7543 12.692C30.2903 12.692 29.8823 12.608 29.5303 12.44C29.1783 12.272 28.9023 12.04 28.7023 11.744C28.5103 11.448 28.4143 11.104 28.4143 10.712C28.4143 10.096 28.6783 9.612 29.2063 9.26C29.7423 8.908 30.4543 8.732 31.3423 8.732H32.7343C32.7103 8.34 32.5623 8.036 32.2903 7.82C32.0183 7.604 31.6583 7.496 31.2103 7.496C30.8583 7.496 30.5343 7.564 30.2383 7.7C29.9423 7.836 29.6823 8.02 29.4583 8.252L28.6303 7.292C28.9503 6.972 29.3383 6.724 29.7943 6.548C30.2503 6.364 30.7463 6.272 31.2823 6.272C31.8743 6.272 32.3903 6.372 32.8303 6.572C33.2783 6.772 33.6263 7.06 33.8743 7.436C34.1223 7.804 34.2463 8.256 34.2463 8.792V12.5H32.8063V11.792C32.5823 12.072 32.2943 12.292 31.9423 12.452C31.5903 12.612 31.1943 12.692 30.7543 12.692ZM31.1263 11.504C31.4863 11.504 31.8103 11.416 32.0983 11.24C32.3863 11.064 32.5983 10.828 32.7343 10.532V9.764H31.4623C31.0303 9.764 30.6823 9.84 30.4183 9.992C30.1543 10.144 30.0223 10.364 30.0223 10.652C30.0223 10.908 30.1223 11.116 30.3223 11.276C30.5303 11.428 30.7983 11.504 31.1263 11.504Z" fill="#0F62E6"/>
<path d="M39.3129 6.356V7.796H38.9889C38.4289 7.796 37.9809 7.964 37.6449 8.3C37.3089 8.628 37.1409 9.168 37.1409 9.92V12.5H35.5569V6.464H37.1289V7.652C37.2649 7.324 37.4409 7.068 37.6569 6.884C37.8729 6.692 38.1049 6.556 38.3529 6.476C38.6089 6.396 38.8569 6.356 39.0969 6.356H39.3129Z" fill="#0F62E6"/>
<path d="M41.9221 12.5H40.3381V3.86H41.9221V9.128L44.5141 6.464H46.4101L43.5181 9.368L46.7581 12.5H44.7421L41.9221 9.716V12.5Z" fill="#0F62E6"/>
<path d="M52.2027 10.616L53.0427 11.588C52.7307 11.932 52.3347 12.204 51.8547 12.404C51.3827 12.596 50.8627 12.692 50.2947 12.692C49.5987 12.692 48.9827 12.556 48.4467 12.284C47.9187 12.012 47.5067 11.636 47.2107 11.156C46.9147 10.676 46.7667 10.12 46.7667 9.488C46.7667 8.856 46.9067 8.3 47.1867 7.82C47.4747 7.332 47.8627 6.952 48.3507 6.68C48.8467 6.408 49.4067 6.272 50.0307 6.272C50.6307 6.272 51.1627 6.408 51.6267 6.68C52.0907 6.944 52.4547 7.312 52.7187 7.784C52.9827 8.256 53.1147 8.804 53.1147 9.428V9.98H48.4227C48.5267 10.452 48.7507 10.816 49.0947 11.072C49.4467 11.32 49.8747 11.444 50.3787 11.444C51.1067 11.444 51.7147 11.168 52.2027 10.616ZM50.0187 7.508C49.6027 7.508 49.2507 7.636 48.9627 7.892C48.6827 8.148 48.5027 8.5 48.4227 8.948H51.5427C51.4787 8.508 51.3107 8.16 51.0387 7.904C50.7667 7.64 50.4267 7.508 50.0187 7.508Z" fill="#0F62E6"/>
<path d="M57.9728 12.5H56.4608C55.3648 12.5 54.8168 11.952 54.8168 10.856V7.748H53.7608V6.464H54.8168V4.868H56.4008V6.464H57.9008V7.748H56.4008V10.58C56.4008 10.996 56.6008 11.204 57.0008 11.204H57.9728V12.5Z" fill="#0F62E6"/>
<path d="M60.8759 12.5H59.2559V3.92H62.7359C63.3519 3.92 63.8879 4.032 64.3439 4.256C64.8079 4.472 65.1679 4.776 65.4239 5.168C65.6879 5.56 65.8199 6.016 65.8199 6.536C65.8199 7.056 65.6879 7.516 65.4239 7.916C65.1679 8.308 64.8079 8.616 64.3439 8.84C63.8879 9.056 63.3519 9.164 62.7359 9.164H60.8759V12.5ZM62.7359 5.288H60.8759V7.796H62.7359C63.1839 7.796 63.5359 7.684 63.7919 7.46C64.0479 7.236 64.1759 6.928 64.1759 6.536C64.1759 6.152 64.0479 5.848 63.7919 5.624C63.5359 5.4 63.1839 5.288 62.7359 5.288Z" fill="#0F62E6"/>
<path d="M72.7706 12.5H71.1986V11.72C70.9986 12.024 70.7306 12.264 70.3946 12.44C70.0586 12.608 69.6746 12.692 69.2426 12.692C68.5386 12.692 67.9746 12.484 67.5506 12.068C67.1346 11.644 66.9266 11.032 66.9266 10.232V6.464H68.5106V10.064C68.5106 10.496 68.6146 10.824 68.8226 11.048C69.0386 11.264 69.3306 11.372 69.6986 11.372C70.0346 11.372 70.3386 11.276 70.6106 11.084C70.8826 10.892 71.0746 10.64 71.1866 10.328V6.464H72.7706V12.5Z" fill="#0F62E6"/>
<path d="M73.7145 11.588L74.6025 10.592C74.8825 10.864 75.2105 11.08 75.5865 11.24C75.9705 11.4 76.3585 11.48 76.7505 11.48C77.1185 11.48 77.4105 11.412 77.6265 11.276C77.8425 11.14 77.9505 10.98 77.9505 10.796C77.9505 10.612 77.8345 10.468 77.6025 10.364C77.3705 10.252 77.0305 10.16 76.5825 10.088C75.7505 9.96 75.1145 9.752 74.6745 9.464C74.2425 9.176 74.0265 8.78 74.0265 8.276C74.0265 7.876 74.1385 7.528 74.3625 7.232C74.5865 6.928 74.8985 6.692 75.2985 6.524C75.6985 6.356 76.1545 6.272 76.6665 6.272C77.2665 6.272 77.7985 6.368 78.2625 6.56C78.7265 6.752 79.1265 7.008 79.4625 7.328L78.5745 8.336C78.3265 8.08 78.0385 7.876 77.7105 7.724C77.3825 7.564 77.0385 7.484 76.6785 7.484C76.3425 7.484 76.0705 7.548 75.8625 7.676C75.6625 7.796 75.5625 7.948 75.5625 8.132C75.5625 8.3 75.6625 8.424 75.8625 8.504C76.0625 8.584 76.4105 8.66 76.9065 8.732C77.7705 8.86 78.4185 9.072 78.8505 9.368C79.2905 9.664 79.5105 10.096 79.5105 10.664C79.5105 11.072 79.3905 11.428 79.1505 11.732C78.9105 12.036 78.5785 12.272 78.1545 12.44C77.7305 12.608 77.2385 12.692 76.6785 12.692C76.0785 12.692 75.5225 12.596 75.0105 12.404C74.4985 12.204 74.0665 11.932 73.7145 11.588Z" fill="#0F62E6"/>
<path d="M86.5306 12.5H84.9466V9.008C84.9466 8.536 84.8386 8.184 84.6226 7.952C84.4066 7.712 84.1146 7.592 83.7466 7.592C83.4906 7.592 83.2466 7.66 83.0146 7.796C82.7826 7.932 82.5946 8.148 82.4506 8.444C82.3066 8.732 82.2346 9.108 82.2346 9.572V12.5H80.6506V3.86H82.2346V7.532C82.3706 7.212 82.5426 6.96 82.7506 6.776C82.9666 6.592 83.1986 6.464 83.4466 6.392C83.7026 6.312 83.9546 6.272 84.2026 6.272C84.9226 6.272 85.4906 6.496 85.9066 6.944C86.3226 7.384 86.5306 8.02 86.5306 8.852V12.5Z" fill="#0F62E6"/>
<path d="M95.442 12.5H94.47L93.522 10.1H89.466L88.518 12.5H87.582L91.014 3.92H92.01L95.442 12.5ZM89.79 9.284H93.198L91.494 4.988L89.79 9.284Z" fill="#0F62E6"/>
<path d="M97.5967 14.828H96.7087V6.596H97.5847V7.736C97.7927 7.328 98.1087 7.004 98.5327 6.764C98.9567 6.524 99.4247 6.404 99.9367 6.404C100.513 6.404 101.025 6.544 101.473 6.824C101.921 7.096 102.269 7.468 102.517 7.94C102.773 8.412 102.901 8.948 102.901 9.548C102.901 10.156 102.769 10.696 102.505 11.168C102.249 11.64 101.889 12.012 101.425 12.284C100.969 12.556 100.445 12.692 99.8527 12.692C99.3407 12.692 98.8887 12.592 98.4967 12.392C98.1047 12.192 97.8047 11.92 97.5967 11.576V14.828ZM97.5967 9.728V10.496C97.7487 10.92 98.0207 11.264 98.4127 11.528C98.8047 11.784 99.2527 11.912 99.7567 11.912C100.197 11.912 100.581 11.812 100.909 11.612C101.237 11.404 101.493 11.124 101.677 10.772C101.869 10.412 101.965 10.004 101.965 9.548C101.965 9.092 101.873 8.688 101.689 8.336C101.513 7.976 101.265 7.696 100.945 7.496C100.625 7.288 100.253 7.184 99.8287 7.184C99.3967 7.184 99.0127 7.292 98.6767 7.508C98.3407 7.724 98.0767 8.024 97.8847 8.408C97.6927 8.784 97.5967 9.224 97.5967 9.728Z" fill="#0F62E6"/>
<path d="M105.19 14.828H104.302V6.596H105.178V7.736C105.386 7.328 105.702 7.004 106.126 6.764C106.55 6.524 107.018 6.404 107.53 6.404C108.106 6.404 108.618 6.544 109.066 6.824C109.514 7.096 109.862 7.468 110.11 7.94C110.366 8.412 110.494 8.948 110.494 9.548C110.494 10.156 110.362 10.696 110.098 11.168C109.842 11.64 109.482 12.012 109.018 12.284C108.562 12.556 108.038 12.692 107.446 12.692C106.934 12.692 106.482 12.592 106.09 12.392C105.698 12.192 105.398 11.92 105.19 11.576V14.828ZM105.19 9.728V10.496C105.342 10.92 105.614 11.264 106.006 11.528C106.398 11.784 106.846 11.912 107.35 11.912C107.79 11.912 108.174 11.812 108.502 11.612C108.83 11.404 109.086 11.124 109.27 10.772C109.462 10.412 109.558 10.004 109.558 9.548C109.558 9.092 109.466 8.688 109.282 8.336C109.106 7.976 108.858 7.696 108.538 7.496C108.218 7.288 107.846 7.184 107.422 7.184C106.99 7.184 106.606 7.292 106.27 7.508C105.934 7.724 105.67 8.024 105.478 8.408C105.286 8.784 105.19 9.224 105.19 9.728Z" fill="#0F62E6"/>
<path d="M111.392 11.588L112.016 10.988C112.296 11.284 112.612 11.516 112.964 11.684C113.316 11.852 113.712 11.936 114.152 11.936C114.632 11.936 115.024 11.836 115.328 11.636C115.64 11.428 115.796 11.164 115.796 10.844C115.796 10.564 115.664 10.348 115.4 10.196C115.144 10.036 114.708 9.912 114.092 9.824C113.196 9.696 112.564 9.504 112.196 9.248C111.836 8.984 111.656 8.632 111.656 8.192C111.656 7.832 111.76 7.52 111.968 7.256C112.176 6.984 112.464 6.776 112.832 6.632C113.2 6.48 113.62 6.404 114.092 6.404C114.62 6.404 115.092 6.5 115.508 6.692C115.924 6.884 116.292 7.156 116.612 7.508L115.988 8.108C115.748 7.812 115.472 7.58 115.16 7.412C114.848 7.244 114.492 7.16 114.092 7.16C113.652 7.16 113.288 7.252 113 7.436C112.712 7.62 112.568 7.864 112.568 8.168C112.568 8.392 112.688 8.572 112.928 8.708C113.176 8.836 113.592 8.94 114.176 9.02C115.104 9.148 115.756 9.356 116.132 9.644C116.516 9.924 116.708 10.316 116.708 10.82C116.708 11.188 116.596 11.516 116.372 11.804C116.156 12.084 115.856 12.304 115.472 12.464C115.088 12.616 114.648 12.692 114.152 12.692C113.576 12.692 113.06 12.596 112.604 12.404C112.156 12.204 111.752 11.932 111.392 11.588Z" fill="#0F62E6"/>
</svg>
